<svg width="18" height="16" viewBox="0 0 18 16" fill="none" xmlns="http://www.w3.org/2000/svg">
<g opacity="0.2">
<path d="M8.13362 4.4701C8.13362 4.4701 3.45357 0.450089 0.713573 4.80009C-3.47643 11.4501 12.1536 15.2501 12.1536 15.2501C12.1536 15.2501 20.6836 4.87009 15.3636 0.830087C11.2236 -2.30991 8.13362 4.4701 8.13362 4.4701Z" fill="#ECB6B0"/>
<g style="mix-blend-mode:multiply" opacity="0.4">
<path d="M1.92371 3.47011C3.07371 5.49011 4.42371 7.39009 6.05371 9.05009C8.16371 11.1901 10.6737 12.7001 13.4337 13.5201C12.7037 14.5801 12.1537 15.2501 12.1537 15.2501C12.1537 15.2501 -3.47632 11.4501 0.713684 4.80009C1.08368 4.21009 1.49371 3.78011 1.92371 3.47011Z" fill="#ECB6B0"/>
</g>
</g>
</svg>
