<svg width="27" height="24" viewBox="0 0 27 24" fill="none" xmlns="http://www.w3.org/2000/svg">
<g opacity="0.2">
<path d="M12.8004 7.03486C12.8004 7.03486 5.43514 0.708331 1.12304 7.55418C-5.47102 18.0197 19.1268 24 19.1268 24C19.1268 24 32.5511 7.66435 24.1787 1.30636C17.6633 -3.63525 12.8004 7.03486 12.8004 7.03486Z" fill="#ECB6B0"/>
<g style="mix-blend-mode:multiply" opacity="0.4">
<path d="M3.02749 5.46111C4.83732 8.64011 6.9619 11.6302 9.52713 14.2427C12.8478 17.6105 16.7979 19.9869 21.1415 21.2774C19.9926 22.9456 19.127 24 19.127 24C19.127 24 -5.47084 18.0197 1.12321 7.55419C1.7055 6.62567 2.35078 5.94898 3.02749 5.46111Z" fill="#ECB6B0"/>
</g>
</g>
</svg>
