<svg width="38" height="40" viewBox="0 0 38 40" fill="none" xmlns="http://www.w3.org/2000/svg">
<g opacity="0.2">
<path opacity="0.4" d="M24.548 17.8534C24.548 17.8534 37.5243 17.7582 36.0272 28.4588C33.7293 44.8298 3.44786 29.7148 3.44786 29.7148C3.44786 29.7148 3.83067 1.45364 17.8681 2.18257C28.7754 2.75322 24.548 17.8534 24.548 17.8534Z" fill="#DC3D45"/>
<g style="mix-blend-mode:multiply" opacity="0.4">
<path d="M36.0272 28.4588C36.295 26.5753 36.1039 25.0269 35.6183 23.761C34.5212 24.1529 33.4354 24.5534 32.3369 24.9354C26.2579 27.0567 19.9577 29.0366 13.4732 29.2956C10.4008 29.4121 7.26027 29.1038 4.38362 27.9925C4.09582 27.8804 3.83234 27.7246 3.54318 27.6026C3.46132 28.9258 3.45057 29.7347 3.45057 29.7347C3.45057 29.7347 33.732 44.8496 36.0299 28.4786L36.0272 28.4588Z" fill="#DC3D45"/>
</g>
</g>
</svg>
