<svg width="39" height="117" viewBox="0 0 39 117" fill="none" xmlns="http://www.w3.org/2000/svg">
<g opacity="0.2">
<path d="M16.6033 10.3739C16.6033 10.3739 18.2633 -2.49614 28.6633 0.433857C44.5733 4.92386 25.5033 32.8839 25.5033 32.8839C25.5033 32.8839 -2.44668 28.6839 0.173324 14.8739C2.21332 4.14386 16.6033 10.3739 16.6033 10.3739Z" fill="#ECB6B0"/>
<g style="mix-blend-mode:multiply" opacity="0.4">
<path d="M28.6733 0.433854C26.8433 -0.0861458 25.2834 -0.106142 23.9634 0.203858C24.2034 1.34386 24.4533 2.47385 24.6833 3.61385C25.9633 9.92385 27.0734 16.4339 26.4534 22.8939C26.1534 25.9539 25.4233 29.0239 23.9333 31.7239C23.7833 31.9939 23.5933 32.2339 23.4333 32.5039C24.7333 32.7639 25.5333 32.8839 25.5333 32.8839C25.5333 32.8839 44.6034 4.92385 28.6934 0.433854H28.6733Z" fill="#ECB6B0"/>
</g>
<path d="M12.9265 66.2626C12.9265 66.2626 14.9765 56.6726 22.6265 59.5326C34.3265 63.9126 18.2166 83.7726 18.2166 83.7726C18.2166 83.7726 -2.57344 78.8626 0.266559 68.6226C2.47656 60.6626 12.9165 66.2626 12.9165 66.2626H12.9265Z" fill="#E38480"/>
<g style="mix-blend-mode:multiply" opacity="0.4">
<path d="M24.2965 60.3926C23.1465 63.8626 21.6765 67.2326 19.9165 70.3726C17.6065 74.4826 14.4965 78.6026 10.4365 81.1026C14.5165 82.8926 18.2265 83.7726 18.2265 83.7726C18.2265 83.7726 32.6165 66.0326 24.2965 60.3926Z" fill="#E38480"/>
</g>
</g>
</svg>
