<svg width="83" height="49" viewBox="0 0 83 49" fill="none" xmlns="http://www.w3.org/2000/svg">
<path d="M20.8224 32.6782C20.8556 32.626 20.7691 32.5121 20.6292 32.4238C20.4893 32.3356 20.349 32.3064 20.3158 32.3587C20.2826 32.4109 20.369 32.5248 20.5089 32.6131C20.6488 32.7013 20.7891 32.7305 20.8224 32.6782Z" fill="#3F3D56"/>
<path d="M20.3316 31.7059C20.3685 31.6479 20.4164 31.5978 20.4728 31.5582C20.5291 31.5187 20.5927 31.4906 20.6599 31.4756C20.7272 31.4606 20.7967 31.4589 20.8646 31.4706C20.9325 31.4823 20.9974 31.5073 21.0556 31.544L27.7045 35.7379C27.7627 35.7746 27.8131 35.8224 27.8528 35.8785C27.8925 35.9346 27.9207 35.9979 27.9358 36.0649C27.9509 36.1318 27.9526 36.2011 27.9408 36.2687C27.929 36.3363 27.904 36.401 27.8671 36.459L20.3316 31.7059Z" fill="#6C63FF"/>
<path d="M19.7026 31.9277L19.9118 31.5987C19.9627 31.5187 20.0434 31.4621 20.1361 31.4413C20.2289 31.4206 20.3262 31.4374 20.4065 31.488L27.9769 36.2631C28.024 36.2928 28.0648 36.3315 28.0969 36.3769C28.129 36.4223 28.1518 36.4736 28.164 36.5278C28.1762 36.582 28.1776 36.638 28.1681 36.6928C28.1585 36.7475 28.1383 36.7998 28.1085 36.8467L27.9346 37.1201L19.7026 31.9277Z" fill="#2F2E41"/>
<path d="M20.8298 32.1085L20.7496 32.2346L21.2562 32.5542L21.3364 32.428L20.8298 32.1085Z" fill="#D0CDE1"/>
<path d="M21.5263 32.5478L21.4461 32.674L21.9527 32.9935L22.0329 32.8674L21.5263 32.5478Z" fill="#D0CDE1"/>
<path d="M33.7161 16.771C36.3261 16.771 38.4419 14.6635 38.4419 12.0638C38.4419 9.46401 36.3261 7.35649 33.7161 7.35649C31.1061 7.35649 28.9902 9.46401 28.9902 12.0638C28.9902 14.6635 31.1061 16.771 33.7161 16.771Z" fill="#FFB8B8"/>
<path d="M38.2166 47.8822C34.3825 48.9488 30.2932 48.6305 26.672 46.9837L27.035 37.321L27.0623 36.5694L27.0725 36.3253L27.085 35.9659L27.094 35.7365C27.094 35.7365 27.1088 35.7354 27.1371 35.7343C27.2143 35.7286 27.3924 35.7162 27.6477 35.7015C27.9438 35.6845 28.3421 35.6631 28.8062 35.6439C28.9162 35.6393 29.0297 35.6348 29.1465 35.6292C31.5905 35.5388 35.4073 35.5195 35.9122 36.253L35.9757 36.6847L36.0779 37.382L36.2866 38.8071C36.2866 38.8071 38.6602 43.5085 38.2166 47.8822Z" fill="#2F2E41"/>
<path d="M39.4164 23.5114L38.4855 32.0756L36.7128 35.9815L36.0558 37.4299L26.5464 37.3151L27.5262 30.7134C26.143 27.1543 29.428 25.7191 29.428 25.7191L32.8356 18.7648C32.8356 18.7648 33.7433 18.3127 36.1134 18.199C38.3167 18.0932 36.5798 18.4258 36.5798 18.4258C39.4614 18.1387 39.4164 23.5114 39.4164 23.5114Z" fill="#02B69B"/>
<path opacity="0.2" d="M36.5567 32.5277L34.7839 36.4336C34.2145 35.3727 33.7811 34.1712 33.7811 33.4617C33.7811 31.5099 35.7406 32.5432 35.7406 32.5432C35.7406 32.5432 34.1557 23.9036 34.1557 21.3204C34.1557 19.6045 35.5919 27.2194 36.5567 32.5277Z" fill="black"/>
<path d="M39.1628 9.19591C38.8553 8.44859 38.3797 7.78155 37.7726 7.24619C38.0216 7.16304 38.2295 6.98861 38.354 6.75833C38.5359 6.39969 38.4395 5.94994 38.1922 5.62895C37.9668 5.35774 37.6752 5.14875 37.3454 5.02198C37.587 5.13143 37.8513 5.18208 38.1165 5.16973C38.4379 5.13643 38.7592 4.88516 38.7401 4.57341C38.722 4.27642 38.4286 4.0756 38.1654 3.92061C37.9946 3.82006 37.8239 3.71953 37.6531 3.61899C37.7038 3.52132 37.7483 3.42061 37.7865 3.31744C37.9339 2.94237 37.9694 2.5329 37.8888 2.1382C37.8082 1.74351 37.615 1.38038 37.3322 1.09244C37.8915 1.6595 37.7487 2.53712 37.1961 3.24932C37.1783 3.27227 37.1592 3.29465 37.1407 3.3173C37.0312 3.25285 36.9217 3.1884 36.8123 3.12395C36.5392 2.9632 36.2554 2.79869 35.9383 2.76078C35.6212 2.72288 35.2599 2.84792 35.1304 3.1297C34.9918 3.43133 35.1494 3.81624 34.9688 4.09629C34.8108 4.34135 34.4658 4.39352 34.1668 4.38192C33.8678 4.37031 33.5499 4.32327 33.2838 4.455C32.914 4.63812 32.7927 5.13337 32.9572 5.50271C33.0303 5.66001 33.1393 5.79814 33.2755 5.90607C32.4839 6.01615 31.7044 6.25026 30.9383 6.48836C30.035 6.76912 29.1148 7.06733 28.3598 7.63563C27.6049 8.20392 27.0329 9.101 27.1048 10.0409C27.1768 10.9807 28.1142 12.461 29.0484 12.3107L29.1906 11.8672C29.7555 11.5997 30.3902 11.5146 31.006 11.6237C31.6219 11.7327 32.1882 12.0306 32.626 12.4756C32.6368 11.8839 33.541 11.6873 33.9915 12.0731C34.4421 12.4589 34.529 13.1111 34.564 13.702C34.5989 14.2928 34.632 14.936 35.0227 15.3819C35.3977 15.8098 36.0365 15.9425 36.5922 15.815C37.148 15.6876 37.6283 15.3364 38.0263 14.9296C39.47 13.4536 39.935 11.1077 39.1628 9.19591Z" fill="#2F2E41"/>
<path d="M24.0894 36.7496C24.3341 36.925 24.6143 37.0448 24.9105 37.1006C25.2067 37.1565 25.5115 37.1469 25.8036 37.0727C26.0956 36.9985 26.3678 36.8614 26.6009 36.671C26.834 36.4807 27.0224 36.2418 27.1528 35.9711L40.0266 36.2246L40.8786 33.4145L26.0605 33.1493C25.5894 32.9613 25.0655 32.952 24.588 33.123C24.1104 33.2941 23.7125 33.6337 23.4695 34.0774C23.2266 34.5212 23.1555 35.0383 23.2697 35.5308C23.384 36.0233 23.6756 36.457 24.0894 36.7496Z" fill="#FFB8B8"/>
<path d="M36.6051 17.9621C36.6051 17.9621 33.6083 18.1918 33.6083 20.775C33.6083 23.3583 36.317 32.5432 36.317 32.5432C36.317 32.5432 34.3575 31.5099 34.3575 33.4617C34.3575 35.4135 37.6425 41.0967 37.9883 37.3079C37.9883 37.3079 42.9447 39.7189 42.6566 35.1839C42.3684 30.6488 39.2563 21.0621 39.2563 21.0621C39.2563 21.0621 38.9104 17.7899 36.6051 17.9621Z" fill="#02B69B"/>
<path d="M0.702179 16.1324C0.702179 15.0278 1.59761 14.1324 2.70218 14.1324H21.3146C22.4192 14.1324 23.3146 15.0278 23.3146 16.1324V23.5514C23.3146 24.2418 22.755 24.8014 22.0647 24.8014C21.354 24.8014 20.7863 25.3932 20.8158 26.1033L20.9344 28.9504L18.8011 25.7032C18.4313 25.1404 17.8031 24.8014 17.1296 24.8014H2.70218C1.59761 24.8014 0.702179 23.9059 0.702179 22.8014V16.1324Z" fill="#E5E5E5"/>
<rect x="4.27258" y="17.6887" width="15.4717" height="1.18545" fill="#FFF9FB"/>
<rect x="11.4133" y="20.0596" width="8.3309" height="1.18545" fill="#FFF9FB"/>
<path d="M70.9986 23.2107C70.8061 23.4609 70.5609 23.6661 70.2802 23.8117C69.9995 23.9573 69.6901 24.0399 69.3739 24.0535C69.0578 24.0672 68.7424 24.0116 68.4501 23.8908C68.1578 23.7699 67.8956 23.5866 67.6821 23.3539L63.0303 25.0308L61.3177 22.4635L67.9205 20.1874C68.3367 19.856 68.8605 19.6882 69.3927 19.7159C69.9248 19.7435 70.4283 19.9646 70.8077 20.3372C71.1871 20.7099 71.4161 21.2082 71.4513 21.7378C71.4865 22.2674 71.3254 22.7915 70.9986 23.2107Z" fill="#FFB6B6"/>
<path d="M56.4629 23.4497L66.0466 20.2943L67.6616 23.8057L58.7264 26.535L56.4629 23.4497Z" fill="#02A48C"/>
<path d="M60.0482 44.1003C56.832 44.868 53.4645 44.725 50.3256 43.6874L50.54 41.6677L50.739 39.7809L53.7233 35.1849L54.68 33.7123L58.6221 35.1398L59.0236 37.6615L59.6634 41.6831L60.0482 44.1003Z" fill="#2F2E41"/>
<path d="M61.3187 47.3154C61.0595 47.4453 60.7359 47.4961 60.4707 47.6081C60.1744 47.7351 59.8749 47.8516 59.5723 47.9576C59.362 48.0308 59.1497 48.0995 58.9355 48.1637C55.7103 49.1298 53.4514 47.3076 50.3038 46.0017C50.0565 45.8986 49.8116 45.7881 49.569 45.6731C49.6021 46.5575 49.5806 47.4438 49.5045 48.3241C49.1594 47.2925 48.8587 46.2386 48.6037 45.1668C48.5858 45.0952 48.5691 45.0235 48.5524 44.9518C48.4687 44.5904 48.3947 44.2454 48.3278 43.9213C48.2513 43.5464 48.1856 43.1984 48.1306 42.8803C47.912 41.6318 47.8427 40.8596 47.8427 40.8596L50.1783 34.7961L50.6454 34.8633L50.839 34.8902L52.0098 35.0574L53.711 35.3009L56.4671 35.6937L59.0261 38.4178L61.3187 40.8596C61.3187 40.8596 61.3187 41.3821 61.3187 42.8803C61.3187 44.9518 61.1061 46.3297 61.3187 47.3154Z" fill="#2F2E41"/>
<path d="M54.9816 11.3224C57.2575 11.3224 59.1025 9.48465 59.1025 7.21766C59.1025 4.95067 57.2575 3.11292 54.9816 3.11292C52.7056 3.11292 50.8606 4.95067 50.8606 7.21766C50.8606 9.48465 52.7056 11.3224 54.9816 11.3224Z" fill="#FFB6B6"/>
<path d="M57.8501 15.8648C57.8501 15.8648 56.8596 12.8153 54.5304 12.8153C53.9481 12.8153 53.0084 12.8634 52.2444 13.3599C49.1689 15.359 47.2979 18.7569 47.1545 22.4121L46.4384 40.6726C46.4384 40.6726 50.3802 42.1004 51.8136 41.565C53.2469 41.0296 54.6803 37.4602 54.6803 37.4602C54.6803 37.4602 54.322 42.2789 55.7553 42.1004C57.1887 41.9219 62.5639 41.565 62.743 40.8511C62.9222 40.1373 60.0001 24.7881 60.0001 24.7881L57.8501 15.8648Z" fill="#02B69B"/>
<path d="M52.9782 8.42107C53.3478 8.3991 53.7088 8.52354 54.076 8.57209C55.3894 8.74579 56.7559 7.79641 57.0459 6.50861C57.0691 6.33712 57.1204 6.17058 57.1978 6.01562C57.3999 5.68687 57.8603 5.62419 58.2399 5.69979C58.6194 5.77538 58.9791 5.95231 59.3656 5.97251C59.9624 6.00371 60.5353 5.63776 60.8534 5.13381C61.1714 4.62986 61.2615 4.00977 61.2185 3.41606L60.9324 3.71514C60.8162 3.47018 60.7713 3.19762 60.8029 2.9285C60.6513 2.88828 60.4919 2.88751 60.3399 2.92625C60.1879 2.96498 60.0484 3.04194 59.9349 3.14974C59.6826 3.17649 59.873 2.68368 59.6856 2.51337C59.5944 2.45759 59.4858 2.43735 59.3805 2.45653C58.8439 2.46168 58.4098 2.05283 57.9869 1.72369C57.2541 1.15469 56.3973 0.765378 55.4856 0.587235C54.8796 0.469501 54.2352 0.450585 53.6605 0.675355C53.1885 0.859946 52.7935 1.19615 52.428 1.54621C51.5282 2.40797 50.7315 3.42051 50.3572 4.60661C50.0529 5.57812 50.0442 6.61764 50.3324 7.59403C50.4832 8.10109 50.9378 9.83764 51.6032 9.87808C52.4394 9.92889 51.9374 8.48292 52.9782 8.42107Z" fill="#2F2E41"/>
<path opacity="0.1" d="M54.7181 21.2691L50.4982 27.4339L49.1487 41.7534L54.7181 21.2691Z" fill="black"/>
<path d="M72.6028 17.5007C72.7038 17.3597 72.7426 17.2149 72.6896 17.1771C72.6365 17.1394 72.5116 17.2231 72.4106 17.3641C72.3096 17.5051 72.2708 17.6499 72.3239 17.6876C72.377 17.7254 72.5018 17.6417 72.6028 17.5007Z" fill="#3F3D56"/>
<path d="M66.9754 24.1423C66.8565 24.0578 66.7761 23.9296 66.7521 23.7861C66.728 23.6426 66.7621 23.4954 66.847 23.3769L71.6465 16.6765C71.7313 16.558 71.86 16.478 72.0041 16.454C72.1482 16.43 72.296 16.464 72.4149 16.5485L66.9754 24.1423Z" fill="#6C63FF"/>
<path d="M67.1724 24.812L66.8947 24.6146C66.847 24.5808 66.8065 24.5379 66.7755 24.4884C66.7445 24.439 66.7235 24.3839 66.7139 24.3264C66.7042 24.2688 66.706 24.21 66.7192 24.1532C66.7324 24.0963 66.7567 24.0427 66.7907 23.9952L72.2553 16.3662C72.3133 16.2853 72.4012 16.2306 72.4997 16.2142C72.5982 16.1978 72.6991 16.221 72.7804 16.2788L73.1146 16.5163L67.1724 24.812Z" fill="#2F2E41"/>
<path d="M72.0903 17.1364L71.7247 17.6469L71.8528 17.738L72.2185 17.2275L72.0903 17.1364Z" fill="#D0CDE1"/>
<path d="M71.5876 17.8384L71.2219 18.3489L71.35 18.4399L71.7157 17.9294L71.5876 17.8384Z" fill="#D0CDE1"/>
<path d="M50.1067 46.4242C50.2916 46.1684 50.4179 45.8753 50.4768 45.5655C50.5356 45.2558 50.5255 44.9369 50.4473 44.6315C50.369 44.326 50.2245 44.0414 50.0239 43.7976C49.8232 43.5538 49.5714 43.3567 49.286 43.2204L49.5533 38.2999L46.591 37.4088L46.3115 44.3628C46.1133 44.8554 46.1034 45.4034 46.2837 45.9028C46.464 46.4023 46.822 46.8185 47.2898 47.0726C47.7576 47.3267 48.3028 47.4011 48.8219 47.2816C49.3411 47.1621 49.7983 46.857 50.1067 46.4242Z" fill="#FFB6B6"/>
<path d="M50.0909 42.377H45.8053L44.6261 29.2282L44.6301 29.2162L48.6413 17.4822C48.7825 17.069 49.0086 16.6897 49.3051 16.3683C49.6016 16.0469 49.962 15.7906 50.3635 15.6156C50.7649 15.4406 51.1985 15.3508 51.6367 15.3519C52.0749 15.353 52.508 15.445 52.9085 15.6219C53.3091 15.7989 53.6682 16.0571 53.9631 16.3799C54.258 16.7027 54.4822 17.0832 54.6213 17.4971C54.7605 17.9109 54.8116 18.3491 54.7714 18.7837C54.7312 19.2183 54.6006 19.6399 54.3879 20.0214L49.668 28.4879L50.0909 42.377Z" fill="#02B69B"/>
<path d="M82.0127 8C82.0127 6.89543 81.1173 6 80.0127 6H69.1083C68.0037 6 67.1083 6.89543 67.1083 8V12.3757C67.1083 12.831 67.4773 13.2 67.9325 13.2C68.4009 13.2 68.7752 13.5898 68.7561 14.0578L68.6772 16L69.8835 14.1199C70.2513 13.5467 70.8856 13.2 71.5668 13.2H80.0127C81.1173 13.2 82.0127 12.3046 82.0127 11.2V8Z" fill="#E5E5E5"/>
<rect width="9.93631" height="1" transform="matrix(-1 0 0 1 80.0255 8)" fill="#FFF9FB"/>
<rect width="4.96815" height="1" transform="matrix(-1 0 0 1 75.0574 10)" fill="#FFF9FB"/>
</svg>
