<svg width="62" height="48" viewBox="0 0 62 48" fill="none" xmlns="http://www.w3.org/2000/svg">
<path d="M9.36941 6.04074C8.88429 4.2607 12.797 2.73427 13.8245 4.16775C13.9674 3.96395 14.4954 3.84016 14.7377 3.90268C14.9748 3.98192 15.1939 4.10772 15.3824 4.27278C15.6558 4.48409 15.939 4.70289 16.1067 5.00672C16.2757 5.3093 16.3018 5.72191 16.0744 5.98448C15.8943 6.19328 15.3626 6.32831 15.0917 6.38333C14.9029 6.42209 14.7439 6.45335 14.6072 6.47585C14.4831 6.29586 14.4259 6.07763 14.4457 5.85944C14.2594 5.98588 14.1391 6.18952 14.1177 6.41459C14.114 6.46085 15.6446 12.1286 15.6446 12.1286C15.4607 12.2339 15.2672 12.3214 15.0669 12.3899C14.6705 11.7802 14.3669 11.1144 14.1662 10.4144C14.12 10.8824 14.1259 11.3542 14.1836 11.821C14.2142 12.0827 14.2582 12.3427 14.3152 12.5999C12.4964 12.995 9.76075 12.865 8.57056 11.1846L8.56996 11.1637C8.56777 11.0058 8.43878 10.8796 8.28188 10.8818C8.1662 10.8834 8.06305 10.9555 8.02109 11.064C7.99221 11.1381 7.96564 11.2023 7.94192 11.2533C7.59532 10.0055 8.04381 8.5614 9.36941 6.04074Z" fill="#2F2E41"/>
<path d="M21.9515 44.9067L15.4428 46.268L15.4084 45.9941L14.4448 38.2221C14.4448 38.2221 13.9569 42.4802 13.4029 46.4132C13.3892 46.5101 13.3754 46.6069 13.3617 46.7038L7.16638 48L7.18288 47.7136L7.94715 34.5713L8.5726 28.8413C8.47224 30.0434 8.84751 28.8413 9.25989 25.7978C10.1644 25.5086 17.3232 25.3675 17.3232 25.3675L21.1666 32.2928C21.1666 32.2928 21.1927 32.5474 21.2395 32.9887V32.9901C21.3645 34.1618 21.6312 39.719 21.9336 44.6287C21.9391 44.7213 21.946 44.814 21.9515 44.9067Z" fill="#2F2E41"/>
<path d="M2.40535 37.2413C2.82371 36.9515 2.93678 36.3792 2.66038 35.9504C2.63271 35.9089 2.60167 35.8698 2.56758 35.8335L4.05245 32.9002L2.8386 31.6182L1.2362 35.8578C0.950848 36.1743 0.913268 36.6446 1.14469 37.0029C1.41798 37.4173 1.97331 37.5303 2.38506 37.2553C2.39189 37.2507 2.39865 37.2461 2.40535 37.2413Z" fill="#FFB6B6"/>
<path d="M30.1844 30.2561C29.6816 30.1841 29.3271 29.7223 29.385 29.2145C29.3914 29.165 29.4019 29.116 29.4163 29.0682L26.7891 27.107L27.3089 25.4152L30.6193 28.4935C31.0148 28.649 31.2565 29.0533 31.2078 29.4778C31.1464 29.9714 30.6991 30.3213 30.2087 30.2595C30.2006 30.2585 30.1925 30.2574 30.1844 30.2561Z" fill="#FFB6B6"/>
<path d="M12.4098 11.2679C14.1698 11.2679 15.5965 9.83202 15.5965 8.06076C15.5965 6.2895 14.1698 4.85361 12.4098 4.85361C10.6498 4.85361 9.22308 6.2895 9.22308 8.06076C9.22308 9.83202 10.6498 11.2679 12.4098 11.2679Z" fill="#FFB6B6"/>
<path d="M42.8963 33.0675L42.8728 33.098C42.8728 33.098 42.9641 32.6276 42.8963 33.0675Z" fill="#2F2E41"/>
<path d="M49.7772 8.20229C51.769 8.20229 53.3838 6.57719 53.3838 4.57253C53.3838 2.56788 51.769 0.94278 49.7772 0.94278C47.7853 0.94278 46.1705 2.56788 46.1705 4.57253C46.1705 6.57719 47.7853 8.20229 49.7772 8.20229Z" fill="#FFB6B6"/>
<path d="M45.4588 3.93753C45.8477 4.05902 46.2225 4.13063 46.4754 3.80964C46.7283 3.48865 46.6622 3.12162 47.0383 2.96687C47.3529 2.86072 47.6955 2.87669 47.999 3.01164C48.0536 3.03209 48.107 3.05511 48.1591 3.07813C48.1883 3.05255 48.2175 3.02827 48.2493 3.00524C48.4884 2.83414 48.7835 2.76182 49.074 2.80318C48.8617 2.90639 49.2368 4.04254 49.1244 4.25113C49.2286 4.30357 49.3341 4.356 49.4408 4.40076C50.3503 4.77518 50.8321 3.72814 51.6751 3.22009C51.2583 4.32501 51.5824 4.7189 52.1936 5.72791L52.2177 5.78673C52.1567 5.52202 52.956 5.21637 52.956 5.60003C52.9209 5.99309 52.8355 6.37995 52.7019 6.75099C53.4859 5.56293 53.9484 4.17283 53.6447 2.83898C53.5799 2.55892 53.5507 2.25839 53.3741 2.03075C53.1974 1.8044 52.8721 1.67139 52.6154 1.79928C52.5182 0.473775 51.2046 0.31785 49.8876 0.415708C49.4195 0.450486 49.139 -0.216154 48.7677 0.072831C48.4501 0.319647 48.1997 0.6432 47.9164 0.930942C47.633 1.21868 47.2975 1.48085 46.9011 1.55246C46.6495 1.59723 46.3661 1.57037 46.1653 1.73023C45.9328 1.91566 45.9303 2.24177 45.9315 2.55509C46.1591 2.54856 46.3834 2.61044 46.5758 2.73284C46.3403 2.7388 46.1126 2.81936 45.9252 2.96304C45.9216 2.96528 45.9182 2.96785 45.915 2.97072C45.8464 3.4976 45.8743 3.60887 45.4588 3.93753Z" fill="#2F2E41"/>
<path d="M24.6186 22.2447H24.6568L20.786 18.464L17.7611 15.2163C17.7621 15.1824 17.7628 15.163 17.7628 15.163L17.6706 15.1191C17.6706 15.1191 14.6286 13.3019 14.5247 13.312L14.0577 12.1607L10.1517 11.3268L9.37617 12.8979L7.86179 13.7803C7.51144 13.8983 7.18848 14.0864 6.91236 14.3335L6.76444 14.4197L6.7754 14.4649C6.28004 14.966 5.99591 15.6402 5.98223 16.347L4.48204 21.81L4.4807 21.8297L1.73508 34.0996L3.66847 34.1963L8.572 21.2326C8.73641 21.1954 7.46144 34.6966 7.60978 34.6516C9.68716 34.0216 23.0246 33.9736 21.4335 32.3723C20.7811 31.7158 18.021 24.5877 17.8645 22.2447C17.8436 21.932 17.8256 21.6164 17.8103 21.3011C18.3535 21.5812 18.881 21.891 19.3904 22.2293L19.4125 22.2447L27.9976 28.2218L29.372 26.8501L24.6186 22.2447Z" fill="#02B69B"/>
<path d="M7.63012 6.2908C7.145 4.51076 11.0577 2.98434 12.0852 4.41781C12.2281 4.21402 12.7561 4.09022 12.9984 4.15274C13.2355 4.23198 13.4547 4.35778 13.6432 4.52284C13.9165 4.73415 14.1997 4.95295 14.3675 5.25678C14.5364 5.55935 14.5625 5.97197 14.3352 6.23453C14.155 6.44334 13.6233 6.57838 13.3524 6.63339C13.1636 6.67215 13.0046 6.70341 12.8679 6.72591C12.7438 6.54592 12.6866 6.32769 12.7064 6.1095C12.5202 6.23594 12.3999 6.43958 12.3784 6.66464C12.3747 6.71091 13.9053 12.3786 13.9053 12.3786C13.7214 12.484 13.528 12.5715 13.3276 12.6399C12.9312 12.0303 12.6276 11.3644 12.4269 10.6644C12.3807 11.1325 12.3866 11.6043 12.4443 12.0711C12.475 12.3328 12.5189 12.5928 12.576 12.85C10.7571 13.2451 8.02146 13.1151 6.83128 11.4346L6.83068 11.4138C6.82848 11.2559 6.6995 11.1296 6.5426 11.1319C6.42692 11.1335 6.32377 11.2055 6.2818 11.3141C6.25293 11.3882 6.22635 11.4524 6.20264 11.5034C5.85603 10.2556 6.30452 8.81146 7.63012 6.2908Z" fill="#2F2E41"/>
<path d="M55.7541 37.8389L48.7285 39.3081L48.7175 39.0272L48.6983 38.5251L48.4742 39.0784L48.3478 39.3869L40.9291 40.9391L40.9456 40.6527L41.0927 38.0547L42.6679 33.1201L43.1985 31.46L54.3135 30.5193C54.3135 30.5207 54.3149 30.5207 54.3149 30.5221C55.2853 32.3053 55.662 34.9296 55.7458 37.5567C55.7499 37.6508 55.7527 37.7448 55.7541 37.8389Z" fill="#2F2E41"/>
<path d="M47.8789 8.97053L51.9738 8.61728L52.6758 9.67702C52.6758 9.67702 56.6538 12.1498 56.7708 12.6208C56.8878 13.0918 54.1968 30.5187 54.3138 30.5187C54.4308 30.5187 50.9209 32.5204 46.7089 32.8737C42.4969 33.2269 42.3702 33.0994 42.3702 33.0994L44.1349 28.7524L44.5444 23.2771L44.1934 12.9151L47.3524 10.5601L47.8789 8.97053Z" fill="#02B69B"/>
<path d="M59.4922 36.0499C59.419 35.6778 59.4354 35.3201 59.522 35.0263L58.6024 31.5268L60.2698 31.1351L61.0231 34.7272C61.2144 34.9656 61.365 35.2901 61.4382 35.6621C61.6054 36.5119 61.3053 37.2877 60.7679 37.3947C60.2305 37.5018 59.6594 36.8997 59.4922 36.0499Z" fill="#FFB6B6"/>
<path d="M54.3779 12.3084C54.3779 12.3084 56.4655 11.4432 57.4479 13.0499C58.4303 14.6566 61.0092 33.5658 61.0092 33.5658L58.8602 33.8748L54.6235 18.6115L54.3779 12.3084Z" fill="#02B69B"/>
<path d="M31.7595 30.1786C32.011 29.8963 32.1784 29.5801 32.2528 29.283L34.8179 26.7455L33.5824 25.5525L31.1134 28.255C30.8281 28.3618 30.534 28.5635 30.2825 28.8459C29.7078 29.491 29.5727 30.3122 29.9805 30.6802C30.3884 31.0482 31.1849 30.8237 31.7595 30.1786Z" fill="#FFB6B6"/>
<path d="M48.1943 12.386C48.1943 12.386 46.8374 10.57 45.178 11.4474C43.5185 12.3247 31.7142 27.2633 31.7142 27.2633L33.4058 28.6325L44.7876 17.6809L48.1943 12.386Z" fill="#02B69B"/>
</svg>
