<svg width="54" height="47" viewBox="0 0 54 47" fill="none" xmlns="http://www.w3.org/2000/svg">
<path d="M24.7514 4.92314C24.3148 4.4675 24.1946 3.87147 24.4827 3.59191C24.7709 3.31235 25.3583 3.45513 25.7949 3.911C25.9718 4.09069 26.1034 4.3104 26.1787 4.55176L28.0041 6.50583L27.2345 7.23037L25.3738 5.3326C25.1368 5.2481 24.9234 5.10769 24.7514 4.92314Z" fill="#FFB6B6"/>
<path d="M26.7256 5.18623L26.379 4.68155L25.3226 5.49033L25.8971 5.77936L26.7256 5.18623Z" fill="#6C63FF"/>
<path d="M36.8581 11.6784L36.3227 8.83877L31.0362 8.33548L26.6338 4.92117L25.5764 5.67211L29.2226 10.8471L36.8581 11.6784Z" fill="#2F2E41"/>
<path d="M33.7581 7.0331C33.3682 6.90151 32.8327 7.17405 32.562 7.64184C32.4504 7.82769 32.3987 8.03124 32.4113 8.23547L32.0938 8.80167L32.0884 8.80219L30.6306 10.7312L28.5444 8.40394C28.2253 8.04795 27.6409 7.89084 27.1001 8.01563C26.2143 8.22001 25.8864 9.04687 26.4749 9.59209L29.9204 12.7845C30.2818 13.1193 30.9767 13.0532 31.2194 12.6609L33.2516 9.01855L33.5003 8.60298C33.7065 8.47265 33.8688 8.3065 33.9736 8.11844C34.2445 7.65051 34.148 7.16469 33.7581 7.0331Z" fill="#FFB6B6"/>
<path d="M34.1273 7L34.1719 4.72763L35.2377 4L36.1146 5.69167L34.1273 7Z" fill="#FFB6B6"/>
<path d="M36.707 6L34.2436 7.3L34.1273 9L37.1082 7.13333L36.707 6Z" fill="#6C63FF"/>
<path d="M37.8816 12.7286L37.8806 12.7324C37.6753 13.8992 37.4013 14.738 37.4013 14.738L37.4862 16.6022L37.6652 20.4998L36.5518 20.5931L34.7972 20.7393L34.6273 20.7538L33.4643 20.8509L31.6733 21L31.1465 13.7357C31.1465 13.7357 31.7987 12.1428 32.4217 10.6258C32.8424 9.60235 33.2499 8.61255 33.433 8.17103C33.4512 8.12774 33.4674 8.09023 33.4805 8.05849C33.6939 7.54868 34.7568 6.91574 35.5799 6.48865C36.1392 6.1972 36.5892 6 36.5892 6L37.0382 6.78684L37.0726 6.84744C37.7461 7.62851 38.0222 8.71547 38.0859 9.83321C38.0909 9.91401 38.094 9.99481 38.097 10.0756C38.1263 11.0048 38.0191 11.9417 37.8816 12.7286Z" fill="#2F2E41"/>
<path d="M34.4099 43.9814L33.2204 43.9701L32.6973 39.3473L34.4529 39.3639L34.4099 43.9814Z" fill="#FFB6B6"/>
<path d="M30.3348 43.916C30.2972 43.9784 30.2758 44.1808 30.2751 44.2539C30.273 44.4782 30.4521 44.6619 30.6751 44.6639L34.3588 44.6985C34.5109 44.6999 34.6354 44.577 34.6368 44.4239L34.6382 44.2695C34.6382 44.2695 34.8247 43.8073 34.4548 43.232C34.4548 43.232 33.9844 43.6754 33.2941 42.9676L33.0921 42.5911L31.5946 43.6719L30.7693 43.7663C30.5887 43.7869 30.429 43.7596 30.3348 43.916Z" fill="#2F2E41"/>
<path d="M40.499 42.5071L39.4188 43.0086L36.9827 39.0543L38.5769 38.3141L40.499 42.5071Z" fill="#FFB6B6"/>
<path d="M36.7869 44.2009C36.7794 44.2735 36.846 44.4658 36.8764 44.5321C36.9698 44.7358 37.2096 44.8248 37.4121 44.7308L40.7571 43.1775C40.8952 43.1133 40.9555 42.9487 40.8918 42.8096L40.8275 42.6695C40.8275 42.6695 40.7999 42.1714 40.2212 41.8104C40.2212 41.8104 39.9841 42.4136 39.0595 42.0706L38.717 41.8171L37.8222 43.4383L37.1161 43.8787C36.9616 43.975 36.8056 44.019 36.7869 44.2009Z" fill="#2F2E41"/>
<path d="M31.5074 21.351L31.6295 31.7428L32.6431 42.5925H34.5224L36.0523 28.4044C36.0523 28.4044 38.2638 24.9733 36.9738 21.9131V20.3954L31.5074 21.351Z" fill="#2F2E41"/>
<path d="M34.6703 31.1864L39.9224 40.5524L38.4481 42.0361L34.3018 36.0085L34.6703 31.1864Z" fill="#2F2E41"/>
<path d="M27.1719 7.40041L27.2172 7.26667L27.5377 6L29.1592 6.66667L29.0474 8L27.1719 7.40041Z" fill="#FFB6B6"/>
<path d="M29.5426 7.7405L27.3821 7C27.3821 7 25.5592 9.15417 26.5044 11.7796L26.7745 14.9435C26.7745 14.9435 23.0612 18.0401 22.7912 22.0119C22.5211 25.9836 13.7443 36.4852 13.7443 36.4852C13.7443 36.4852 10.5036 36.6871 10.301 37.8988C10.0985 39.1106 11.4488 40.6589 11.1787 42.0052C10.9087 43.3516 13.1122 47.256 17.7829 46.9867C22.4536 46.7175 36.9016 44.0921 37.1042 41.0628C37.3067 38.0335 29.8802 15.482 29.8802 15.482L30.9604 12.4527C30.9604 12.4527 31.703 11.241 30.6228 9.96198C29.5426 8.68294 29.5426 7.7405 29.5426 7.7405Z" fill="#02B69B"/>
<path d="M34.6242 6C35.9961 6 37.1082 4.88071 37.1082 3.5C37.1082 2.11929 35.9961 1 34.6242 1C33.2523 1 32.1401 2.11929 32.1401 3.5C32.1401 4.88071 33.2523 6 34.6242 6Z" fill="#FFB6B6"/>
<path d="M34.0791 4.51712L32.797 3.36355L33.1518 2.46638C33.1518 2.46638 30.618 3.33767 31.2467 1.50247C31.8754 -0.332732 35.0831 -0.147466 35.7475 0.300301C36.4119 0.748069 38.5646 1.78477 38.0122 3.23837C37.4597 4.69198 36.4119 6 36.4119 6L35.5832 5.55444C35.5832 5.55444 35.557 3.88026 35.1474 3.96188C34.7378 4.04349 34.0791 4.51712 34.0791 4.51712Z" fill="#2F2E41"/>
<path d="M29.1555 6.75179C30.3481 6.75179 31.3149 5.77877 31.3149 4.57847C31.3149 3.37818 30.3481 2.40515 29.1555 2.40515C27.9628 2.40515 26.996 3.37818 26.996 4.57847C26.996 5.77877 27.9628 6.75179 29.1555 6.75179Z" fill="#FFB6B6"/>
<path d="M28.9832 1.65662C29.0457 1.69333 29.1294 1.63779 29.1494 1.56782C29.1695 1.49785 29.1461 1.42356 29.123 1.35457L29.0065 1.00725C28.9238 0.760931 28.8361 0.506 28.6572 0.318516C28.387 0.0355403 27.9577 -0.0364478 27.5713 0.0157051C27.075 0.0826793 26.5854 0.353128 26.3546 0.800349C26.1239 1.24757 26.2221 1.8716 26.6391 2.15063C26.0448 2.8361 25.8377 3.60004 25.8704 4.50914C25.9031 5.41824 26.8875 6.25491 27.5294 6.89534C27.6728 6.80788 27.8031 6.398 27.7243 6.24911C27.6454 6.10021 27.7584 5.92771 27.6608 5.79055C27.5631 5.6534 27.4814 5.87179 27.5802 5.73542C27.6424 5.64936 27.3993 5.45139 27.4919 5.39989C27.9397 5.15077 28.0887 4.58902 28.3699 4.15884C28.7092 3.63997 29.2898 3.28859 29.9042 3.23029C30.2427 3.19818 30.6002 3.25634 30.8776 3.45411C31.1551 3.65187 31.3347 4.00526 31.2703 4.34124C31.437 4.17098 31.5199 3.92146 31.4886 3.68458C31.4573 3.44769 31.3125 3.22864 31.1075 3.10808C31.2322 2.6932 31.1254 2.21596 30.836 1.8949C30.5467 1.57385 29.3729 1.62853 28.9505 1.71303" fill="#2F2E41"/>
<path d="M49.6855 34.2722C49.3958 34.3066 49.0798 34.3583 48.7436 34.4338C47.3181 34.7542 47.2886 35.8224 47.3011 36.0673L47.2914 36.0606C47.148 36.3144 47.0583 36.5712 47.004 36.8136L46.9387 33.5396C46.9809 33.4424 47.0194 33.3323 47.0514 33.2194C47.1581 33.5821 47.333 33.9247 47.4838 33.902C47.6798 33.8724 47.7653 33.2358 47.7287 32.7833C47.978 33.1377 48.3976 33.5167 48.5559 33.3998C48.6824 33.3064 48.6074 32.922 48.4693 32.5725C48.757 32.7638 49.0757 32.8896 49.1746 32.7681C49.3095 32.6023 48.9862 32.0366 48.688 31.7209C49.0871 31.762 49.5948 31.6918 49.6281 31.4913C49.6555 31.3261 49.3533 31.1176 49.03 30.9835C49.3548 30.889 49.6585 30.7243 49.6484 30.5613C49.6365 30.3678 49.1855 30.2381 48.7965 30.2184C49.0899 29.965 49.3595 29.6148 49.2771 29.4564C49.2013 29.3108 48.8487 29.3672 48.5233 29.4954C48.7159 29.1916 48.8512 28.8493 48.7481 28.7322C48.6197 28.5862 48.164 28.8381 47.8529 29.1165C47.9135 28.6828 47.8829 28.1353 47.7066 28.0858C47.5591 28.0443 47.3501 28.3628 47.2069 28.7097C47.1435 28.3457 47.0153 28 46.8674 28C46.6566 28 46.4857 28.7014 46.4857 29.1584C46.4857 29.1842 46.4863 29.2085 46.4874 29.2317C46.4662 29.2047 46.442 29.1764 46.4143 29.1467C46.1173 28.8284 45.5423 28.475 45.3955 28.6419C45.2924 28.7591 45.4278 29.1014 45.6203 29.4052C45.295 29.2769 44.9423 29.2205 44.8665 29.3661C44.7647 29.5618 45.2 30.0503 45.5539 30.2871C45.5327 30.2843 45.5103 30.2819 45.4865 30.2801C45.0734 30.249 44.4277 30.3894 44.4134 30.6215C44.4033 30.7845 44.7071 30.9491 45.0319 31.0437C44.7085 31.1778 44.4064 31.3863 44.4338 31.5515C44.4671 31.752 44.9747 31.8221 45.3739 31.7811C45.0757 32.0968 44.7523 32.6625 44.8873 32.8282C44.9862 32.9497 45.3048 32.824 45.5925 32.6327C45.4545 32.9822 45.3795 33.3666 45.5059 33.46C45.6731 33.5834 46.1315 33.1539 46.3732 32.7843C46.3486 33.2364 46.4466 33.8576 46.6411 33.8821C46.7224 33.8923 46.8086 33.7966 46.8864 33.6492L46.6661 37.1683C46.6146 37.5782 46.944 37.8456 46.9734 38.0144L47.021 40.3975C46.9673 40.2278 46.8951 40.0541 46.7977 39.8817L46.7881 39.8884C46.8005 39.6435 46.7709 38.5753 45.3455 38.2549C45.0093 38.1794 44.6933 38.1277 44.4036 38.0933C44.0616 38.0527 43.9282 38.5694 44.2371 38.7362C44.6845 38.9779 45.1054 39.2824 45.3248 39.643C45.8856 40.5649 46.6605 40.032 46.7707 39.9492C46.8937 40.1753 46.9744 40.4031 47.0254 40.6198L47.0506 41.8854C47.0444 41.9153 47.0402 41.9321 47.0398 41.9334L47.0517 41.9372L47.1127 45L47.6792 44.995L47.4766 41.8643C47.5106 41.6954 47.6154 41.1201 47.4766 40.5226L47.274 38.0628C47.2735 38.0609 47.2855 38.1274 47.274 38.0628L47.0097 37.0963C47.0481 36.7973 47.1373 36.4609 47.3184 36.1281C47.4286 36.2109 48.2035 36.7438 48.7643 35.8219C48.9837 35.4613 49.4046 35.1568 49.852 34.9152C50.1609 34.7483 50.0275 34.2316 49.6855 34.2722ZM47.0978 41.5187L47.0872 40.9831C47.1087 41.1856 47.1076 41.3684 47.0978 41.5187Z" fill="#F2F2F2"/>
<path d="M7.89639 34.2722C7.55839 34.3066 7.18967 34.3583 6.79746 34.4338C5.13445 34.7542 5.09993 35.8224 5.11451 36.0673L5.10321 36.0606C4.93599 36.3144 4.83126 36.5712 4.76797 36.8136L4.69181 33.5396C4.74105 33.4424 4.78586 33.3323 4.82321 33.2194C4.9477 33.5821 5.15176 33.9247 5.32766 33.902C5.55639 33.8724 5.65611 33.2358 5.61345 32.7833C5.90431 33.1377 6.39383 33.5167 6.57849 33.3998C6.72606 33.3064 6.63856 32.922 6.47745 32.5725C6.81313 32.7638 7.18491 32.8896 7.30028 32.7681C7.4577 32.6023 7.08048 32.0366 6.73258 31.7209C7.19826 31.762 7.79051 31.6918 7.82934 31.4913C7.86133 31.3261 7.50885 31.1176 7.13157 30.9835C7.51052 30.889 7.86488 30.7243 7.85313 30.5613C7.83917 30.3678 7.31306 30.2381 6.85919 30.2184C7.20153 29.965 7.51608 29.6148 7.41989 29.4564C7.33146 29.3108 6.92006 29.3672 6.5405 29.4954C6.76512 29.1916 6.92304 28.8493 6.80277 28.7322C6.65296 28.5862 6.12125 28.8381 5.75838 29.1165C5.82902 28.6828 5.79331 28.1353 5.58766 28.0858C5.41562 28.0443 5.17178 28.3628 5.00461 28.7097C4.93072 28.3457 4.78115 28 4.60852 28C4.3626 28 4.16325 28.7014 4.16325 29.1584C4.16325 29.1842 4.16397 29.2085 4.16522 29.2317C4.14054 29.2047 4.11225 29.1764 4.07999 29.1467C3.73346 28.8284 3.06268 28.475 2.89135 28.6419C2.77108 28.7591 2.929 29.1014 3.15362 29.4052C2.77406 29.2769 2.36267 29.2205 2.27423 29.3661C2.1554 29.5618 2.66333 30.0503 3.07619 30.2871C3.05137 30.2843 3.0253 30.2819 2.99755 30.2801C2.51561 30.249 1.76232 30.3894 1.74558 30.6215C1.73382 30.7845 2.08819 30.9491 2.46713 31.0437C2.08986 31.1778 1.73737 31.3863 1.76937 31.5515C1.80819 31.752 2.40045 31.8221 2.86612 31.7811C2.51823 32.0968 2.141 32.6625 2.29843 32.8282C2.41379 32.9497 2.78557 32.824 3.12125 32.6327C2.96015 32.9822 2.87265 33.3666 3.02021 33.46C3.21522 33.5834 3.75005 33.1539 4.03203 32.7843C4.0033 33.2364 4.11765 33.8576 4.34456 33.8821C4.43945 33.8923 4.54 33.7966 4.63075 33.6492L4.37374 37.1683C4.31366 37.5782 4.69795 37.8456 4.73229 38.0144L4.78773 40.3975C4.72516 40.2278 4.64089 40.0541 4.5273 39.8817L4.516 39.8884C4.53058 39.6435 4.49603 38.5753 2.83305 38.2549C2.44084 38.1794 2.07212 38.1277 1.73412 38.0933C1.33515 38.0527 1.17952 38.5694 1.53994 38.7362C2.06191 38.9779 2.55291 39.2824 2.80884 39.643C3.46314 40.5649 4.36719 40.032 4.49573 39.9492C4.6393 40.1753 4.73344 40.4031 4.7929 40.6198L4.82234 41.8854C4.81512 41.9153 4.81013 41.9321 4.80974 41.9334L4.82354 41.9372L4.89478 45L5.55567 44.995L5.31928 41.8643C5.359 41.6954 5.48121 41.1201 5.31928 40.5226L5.08289 38.0628C5.08231 38.0609 5.09631 38.1274 5.08289 38.0628L4.77454 37.0963C4.81938 36.7973 4.92344 36.4609 5.13478 36.1281C5.26331 36.2109 6.16737 36.7438 6.82167 35.8219C7.07759 35.4613 7.5686 35.1568 8.09056 34.9152C8.45098 34.7483 8.29536 34.2316 7.89639 34.2722ZM4.87741 41.5187L4.86496 40.9831C4.89008 41.1856 4.88881 41.3684 4.87741 41.5187Z" fill="#F2F2F2"/>
<path d="M35.6516 20.4842C35.4475 20.28 35.1856 20.1181 34.8879 20.0121L34.6904 19.8244L34.7003 19.8167L30.8615 14.7153L28.781 9.73325C28.5403 9.15681 27.7545 8.85552 27.0471 9.06839C26.3394 9.28133 25.9916 9.9241 26.2797 10.4865L28.7108 15.2319L33.6531 20.6359L33.7727 20.7552C33.8463 21.0105 33.9947 21.2478 34.2056 21.4474C34.725 21.9529 35.4694 22.1468 35.8687 21.8807C36.268 21.6147 36.1708 20.9894 35.6516 20.4842Z" fill="#FFB6B6"/>
<path d="M36.1159 22.5174C35.9741 23.3103 35.4527 23.8794 34.9513 23.7885C34.4499 23.6976 34.1585 22.9812 34.3005 22.1881C34.3528 21.8704 34.48 21.5701 34.6714 21.312L35.3144 17.9601L36.6308 18.2193L36.0718 21.5659C36.1618 21.875 36.1769 22.2013 36.1159 22.5174Z" fill="#FFB6B6"/>
<path d="M34.9144 20.2713L34.6553 21.0073L36.2717 21.5015L36.1399 20.6896L34.9144 20.2713Z" fill="#02B69B"/>
<path d="M37.6868 10.5561L37.6101 11.9239L37.4691 13.3926L37.4681 13.3967L37.0695 17.5343L36.768 20.6711L36.7108 21.2584L36.2142 21.1463L36.1447 21.1308L35.6388 21.0167L34.7661 20.8182L34.7252 20.8099L34.5505 20.7698L34.995 13.4235L35.0645 10.265L35.1258 7.49431L35.1432 6.72089C35.7083 6.40927 36.1631 6.19843 36.1631 6.19843L36.6168 7.03972L36.6515 7.10451C37.3322 7.93963 37.6111 9.10181 37.6755 10.2969C37.6806 10.3833 37.6837 10.4697 37.6868 10.5561Z" fill="#2F2E41"/>
<path d="M29.1592 2C28.5333 2.09944 28.0814 2.89734 27.6999 3.63421C27.4799 4.05892 27.2496 4.52795 27.2551 5.06189C27.2607 5.60172 27.5059 6.06475 27.6231 6.57634C27.8147 7.41256 27.628 8.40747 27.1719 8.98044C27.6225 9.10629 28.1096 8.60903 28.1874 7.94379C28.278 7.16937 27.8791 6.42193 27.9264 5.63921C27.968 4.94962 28.3372 4.4189 28.6511 3.90329C28.965 3.38769 29.2598 2.70349 29.1154 2.04462" fill="#2F2E41"/>
</svg>
