<svg width="45" height="57" viewBox="0 0 45 57" fill="none" xmlns="http://www.w3.org/2000/svg">
<path d="M45 44H1V0H45V44Z" fill="url(#paint0_linear_1_272)"/>
<path d="M45 44H1V0H45V44ZM1.64988 43.3492H44.3501V0.64989H1.64988V43.3492Z" fill="#E5E5E5"/>
<path d="M37 8H18V9H37V8Z" fill="#E5E5E5"/>
<path d="M37 10H18V11H37V10Z" fill="#E5E5E5"/>
<path d="M37 20H18V21H37V20Z" fill="#E5E5E5"/>
<path d="M37 23H18V24H37V23Z" fill="#E5E5E5"/>
<path d="M37 33H18V34H37V33Z" fill="#E5E5E5"/>
<path d="M37 35H18V36H37V35Z" fill="#E5E5E5"/>
<path d="M37 36H18V37H37V36Z" fill="#E5E5E5"/>
<path d="M10.9996 10.5383V11.0939C10.9455 11.1588 10.8911 11.2201 10.8354 11.2776L10.7684 11.3448L10.7551 11.3573C10.7273 11.3839 10.6999 11.4104 10.6717 11.4363H10.6693C10.5432 11.5499 10.4131 11.647 10.2798 11.727C10.069 11.8525 9.85161 11.9352 9.6314 11.9734C9.53502 11.9911 9.43745 12 9.33911 12C9.06887 12.0002 8.79977 11.934 8.53864 11.803C8.40517 11.7371 8.27426 11.654 8.14683 11.5543H8.14409L8.10491 11.5226C8.04183 11.4709 7.9807 11.4156 7.92076 11.3566L7.89451 11.3315C7.83025 11.2673 7.76755 11.2001 7.70565 11.1278H7.70213C7.60724 11.0161 7.51567 10.8947 7.42786 10.7641C7.3828 10.6991 7.33931 10.6305 7.29699 10.5597C7.27466 10.5243 7.25232 10.4859 7.23117 10.4497C7.1498 10.3083 7.07263 10.1585 7 10.0011C7.00963 9.89196 7.02377 9.78439 7.04232 9.6794C7.04566 9.6615 7.04959 9.64402 7.05407 9.62702C7.05714 9.61189 7.06067 9.59711 7.06465 9.58275C7.11754 9.42544 7.19279 9.29917 7.28185 9.2183C7.37091 9.13744 7.47023 9.10521 7.56852 9.12526C7.69508 9.11493 7.83456 9.12526 7.98228 9.12526C8.06064 9.12526 8.14096 9.11864 8.22167 9.10535C8.73102 9.01829 8.63894 8.45159 8.66167 8.14612C8.68439 7.84064 8.82584 8.10627 8.83563 8.12324C9.12404 8.37754 9.44316 8.48297 9.76031 8.42872C9.81477 8.41617 9.86963 8.40881 9.92409 8.40586C10.0679 8.40586 10.0365 8.47964 9.98717 8.54457C9.96311 8.57438 9.93797 8.60101 9.91194 8.62426C9.91194 8.62426 9.88921 8.8862 9.8657 9.27874C9.84337 9.65431 10.2254 9.83066 10.2575 9.84394H10.2599C10.3994 9.77567 10.5463 9.78284 10.6838 9.86461C10.7623 9.91902 10.8323 10.0095 10.8875 10.1278C10.9427 10.246 10.9814 10.3884 11 10.542L10.9996 10.5383Z" fill="#CACACA"/>
<path d="M7.94347 10.6803L7.82141 10H7.49225C7.37779 10.0121 7.26756 10.0593 7.17158 10.1373C7.10642 10.1886 7.04847 10.2527 7 10.3271C7.09455 10.4156 7.1931 10.4978 7.29415 10.5745H7.29866C7.32767 10.5962 7.35718 10.6184 7.3867 10.6364C7.43973 10.6759 7.49475 10.713 7.54927 10.7489L7.58379 10.7706C7.66383 10.8219 7.74488 10.8701 7.82842 10.9153L7.87845 10.9425H7.88194C7.92096 10.9629 7.96048 10.9821 8 11L7.94347 10.6803Z" fill="#CACACA"/>
<path d="M12.7802 6.68709C12.5888 6.13717 12.2798 5.63565 11.8748 5.21749C11.4698 4.79933 10.9786 4.4746 10.4353 4.26593C9.89207 4.05726 9.30988 3.96967 8.72933 4.00927C8.14878 4.04888 7.58385 4.21472 7.07392 4.49524C6.56398 4.77576 6.12133 5.1642 5.77679 5.63349C5.43226 6.10278 5.19414 6.64162 5.07905 7.21245C4.96395 7.78328 4.97466 8.37237 5.1104 8.93864C5.24614 9.50492 5.50364 10.0347 5.86499 10.4912C5.90095 10.5364 5.93838 10.5817 5.97629 10.6254L5.98408 10.6342C6.07765 10.7422 6.1771 10.845 6.282 10.9421C6.30922 10.9674 6.3379 10.9907 6.36657 11.0175C6.42101 11.0661 6.4774 11.1148 6.53523 11.1576C6.55808 11.1756 6.58043 11.1936 6.60425 11.2106C6.69611 11.2801 6.79185 11.3448 6.89002 11.4051H6.8944C6.92259 11.4222 6.95126 11.4397 6.97994 11.4538C7.03146 11.4849 7.08493 11.5141 7.1379 11.5423L7.17193 11.5593C7.24969 11.5997 7.32842 11.6376 7.40959 11.6731L7.4582 11.6945H7.46159C7.4995 11.7106 7.53791 11.7257 7.57631 11.7398C7.70357 11.7884 7.83336 11.8302 7.96512 11.8648C8.30188 11.9546 8.64892 12.0001 8.99744 12C9.12478 12 9.25018 11.9942 9.3746 11.982C9.65849 11.9558 9.93875 11.8993 10.2106 11.8132C10.3823 11.7585 10.55 11.6921 10.7126 11.6143H10.7156C10.752 11.5973 10.7875 11.5783 10.8235 11.5603L10.8405 11.5515C10.8691 11.5365 10.8978 11.5214 10.9265 11.5053C10.9984 11.4659 11.0689 11.4241 11.1384 11.3794C11.1578 11.3677 11.1763 11.3555 11.1958 11.3429C11.223 11.3249 11.2502 11.3064 11.2769 11.2869C11.3119 11.2626 11.3474 11.2383 11.3819 11.2116C11.3926 11.2038 11.4043 11.1955 11.4149 11.1872C12.0878 10.6772 12.5822 9.96723 12.8275 9.15893C13.0727 8.35063 13.0561 7.48541 12.7802 6.68709ZM11.2891 11.016C11.2653 11.0345 11.2405 11.0525 11.2167 11.069C11.1928 11.0856 11.168 11.1041 11.1447 11.1177C11.1214 11.1313 11.1029 11.1474 11.0815 11.161L11.0752 11.1653L11.0266 11.1965C10.967 11.2338 10.9067 11.2698 10.8458 11.3045L10.8264 11.3152L10.7447 11.3589L10.7331 11.3648H10.7287C10.6942 11.3828 10.6592 11.3998 10.6237 11.4163C10.4878 11.4818 10.3479 11.5385 10.2047 11.5861L10.1489 11.6046C9.89147 11.6865 9.62603 11.7404 9.35711 11.7656C9.2395 11.7763 9.11993 11.7821 8.99988 11.7821C8.67034 11.7828 8.34218 11.7397 8.02393 11.6542C7.86053 11.6115 7.70039 11.5572 7.54471 11.4917L7.5204 11.4815L7.49611 11.4713L7.47083 11.4596C7.40327 11.4299 7.33668 11.3978 7.27107 11.3623L7.23948 11.3458C7.15977 11.304 7.08152 11.2597 7.00521 11.212C6.98286 11.1984 6.96002 11.1838 6.93863 11.1687L6.92211 11.1581C6.8735 11.1245 6.82004 11.089 6.77046 11.0525C6.73692 11.0272 6.7029 11.0039 6.66985 10.9761C6.61444 10.9343 6.56147 10.89 6.50947 10.8438C6.48225 10.821 6.45552 10.7952 6.42976 10.7719C6.32792 10.6777 6.23153 10.5778 6.14106 10.4727C6.11093 10.4382 6.08127 10.4037 6.05357 10.3677C6.04718 10.3605 6.04118 10.3531 6.03559 10.3453C5.56883 9.75588 5.28808 9.04071 5.22912 8.29098C5.17016 7.54124 5.33569 6.79093 5.70457 6.13572C6.07346 5.48051 6.62898 4.9501 7.3003 4.61214C7.97163 4.27418 8.72834 4.14398 9.47391 4.23815C10.2195 4.33233 10.9201 4.6466 11.4865 5.14089C12.0529 5.63519 12.4593 6.2871 12.6539 7.01349C12.8485 7.73988 12.8226 8.50782 12.5793 9.21938C12.3361 9.93094 11.8866 10.5539 11.2881 11.0087L11.2891 11.016Z" fill="#3F3D56"/>
<path d="M12.7793 34.3527C12.5882 33.8714 12.2795 33.4323 11.8747 33.0662C11.4698 32.7002 10.9786 32.4158 10.4354 32.233C9.8921 32.0503 9.30982 31.9735 8.72916 32.0081C8.1485 32.0426 7.58345 32.1877 7.07342 32.4332C6.5634 32.6786 6.1207 33.0186 5.77619 33.4293C5.43168 33.84 5.19366 34.3115 5.07875 34.8111C4.96384 35.3106 4.9748 35.8261 5.11087 36.3215C5.24693 36.8169 5.50484 37.2804 5.86657 37.6796C5.90204 37.7192 5.93994 37.7587 5.97784 37.797C5.98001 37.7999 5.98244 37.8026 5.98512 37.8051C6.07889 37.8995 6.17864 37.9893 6.28391 38.0739C6.31112 38.0961 6.3393 38.119 6.36797 38.1403C6.42238 38.1828 6.47826 38.2254 6.53705 38.2624C6.55989 38.2781 6.58224 38.2943 6.60604 38.3092C6.69738 38.37 6.79357 38.4266 6.89123 38.4793C6.89265 38.4789 6.89418 38.4789 6.8956 38.4793C6.92378 38.4942 6.95245 38.5095 6.9816 38.5219L7.0642 38.5644L7.13951 38.6002L7.17303 38.615C7.25077 38.6499 7.32947 38.6831 7.41109 38.7141C7.42033 38.718 7.43004 38.7214 7.44024 38.7252L7.46211 38.7333H7.46551C7.50341 38.7469 7.54179 38.7601 7.58066 38.7728C7.70785 38.8154 7.83761 38.852 7.96935 38.8822C8.18174 38.9321 8.39854 38.9662 8.61747 38.9843C8.74525 38.9945 8.87255 39 9.0013 39C9.13005 39 9.25394 38.9945 9.37881 38.9843C9.41962 38.9813 9.46042 38.977 9.50124 38.9732C9.74314 38.9465 9.98184 38.901 10.2145 38.8371C10.3864 38.7894 10.5543 38.7311 10.7168 38.6627H10.7198C10.7557 38.6478 10.7912 38.6316 10.8276 38.6159L10.8446 38.6078C10.8738 38.595 10.9024 38.5819 10.9306 38.5682C10.9588 38.5546 10.9875 38.5406 11.0147 38.5257C11.0419 38.5108 11.071 38.4972 11.0987 38.4832L11.142 38.4593C11.1619 38.4491 11.1799 38.4389 11.1998 38.427C11.2197 38.4151 11.2542 38.3951 11.2804 38.3785C11.3159 38.3572 11.3509 38.336 11.3854 38.3122C11.397 38.3056 11.4082 38.2985 11.4189 38.2909C12.0909 37.8438 12.5843 37.2222 12.8286 36.515C13.0729 35.8077 13.0557 35.0509 12.7793 34.3527ZM11.2887 38.1386C11.2654 38.1552 11.2401 38.1709 11.2163 38.1854C11.1925 38.1999 11.1677 38.2164 11.1439 38.2305C11.1201 38.2445 11.1021 38.256 11.0807 38.2679L11.0744 38.2718C11.0589 38.2811 11.0428 38.29 11.0258 38.2985L10.9933 38.316C10.9617 38.3334 10.9301 38.35 10.8961 38.3658C10.8791 38.3751 10.8607 38.3841 10.8436 38.3926L10.8247 38.4019C10.7965 38.4155 10.7693 38.4274 10.7421 38.4398C10.7387 38.4423 10.7339 38.4428 10.7314 38.4453C10.73 38.4449 10.7285 38.4449 10.727 38.4453C10.6926 38.461 10.6576 38.4764 10.6221 38.4904C10.4861 38.5476 10.3461 38.5971 10.2028 38.6384C10.1848 38.644 10.1659 38.6503 10.1474 38.655C9.91655 38.7191 9.67917 38.7637 9.43856 38.7882C9.41135 38.7911 9.38318 38.7937 9.35549 38.7963C9.23791 38.8056 9.11936 38.8107 8.99887 38.8107C8.89198 38.8107 8.78412 38.8069 8.6782 38.7988C8.45676 38.7826 8.23742 38.7492 8.02278 38.6988C7.85935 38.6616 7.69924 38.614 7.54374 38.5563L7.51944 38.5478L7.49515 38.5389C7.48592 38.5359 7.47863 38.5325 7.46988 38.5287C7.41109 38.5066 7.35231 38.4819 7.29498 38.4564L7.27068 38.4453L7.2391 38.4308L7.18274 38.4049C7.12201 38.3764 7.06225 38.3453 7.00443 38.3139C6.98257 38.302 6.95925 38.2892 6.93738 38.2764L6.92087 38.2671C6.87228 38.2369 6.81932 38.2067 6.76976 38.1743C6.73624 38.1522 6.70174 38.1318 6.66919 38.1075C6.6138 38.071 6.56037 38.0323 6.50887 37.9918C6.48166 37.9718 6.45445 37.9493 6.42919 37.9293C6.3273 37.8471 6.23094 37.7597 6.14059 37.6677C6.11095 37.6375 6.08083 37.6073 6.05265 37.5758C6.04634 37.5694 6.04098 37.5631 6.03467 37.5558C5.56799 37.0403 5.28727 36.4148 5.2283 35.759C5.16933 35.1032 5.33478 34.4469 5.70356 33.8738C6.07235 33.3007 6.62775 32.8367 7.29893 32.5411C7.9701 32.2455 8.72663 32.1316 9.47204 32.2139C10.2174 32.2963 10.9179 32.5712 11.4842 33.0036C12.0504 33.4359 12.4568 34.0061 12.6514 34.6415C12.8459 35.2768 12.82 35.9486 12.5768 36.571C12.3335 37.1933 11.8841 37.7382 11.2858 38.1361L11.2887 38.1386Z" fill="#3F3D56"/>
<path opacity="0.3" d="M4.24166 27.5308C2.85924 26.3829 1.96613 24.7657 1.73957 23.0001C1.51302 21.2346 1.96961 19.4498 3.0187 18C2.88082 18.1366 2.74824 18.2796 2.62098 18.4289C1.42654 19.8704 0.855602 21.7158 1.03117 23.5675C1.20674 25.4192 2.11477 27.1289 3.55961 28.3283C5.00445 29.5276 6.87044 30.1207 8.75552 29.9795C10.6406 29.8384 12.3939 28.9745 13.6376 27.5738C13.7658 27.4242 13.8867 27.271 14 27.1141C12.7235 28.3757 11.0113 29.1189 9.2035 29.1961C7.3957 29.2733 5.6245 28.6789 4.24166 27.5308Z" fill="black"/>
<path d="M9.1958 37.1619C10.0712 37.1619 10.7808 36.4523 10.7808 35.5769C10.7808 34.7015 10.0712 33.9919 9.1958 33.9919C8.32043 33.9919 7.61079 34.7015 7.61079 35.5769C7.61079 36.4523 8.32043 37.1619 9.1958 37.1619Z" fill="#2F2E41"/>
<path d="M9.26268 34.401C9.62456 34.3884 9.91025 34.1582 9.90078 33.8868C9.8913 33.6154 9.59025 33.4057 9.22836 33.4184C8.86647 33.431 8.58079 33.6612 8.59026 33.9326C8.59974 34.2039 8.90079 34.4136 9.26268 34.401Z" fill="#2F2E41"/>
<path d="M11.0912 38.6512L10.9053 38.3575C10.8265 38.1798 10.6804 38.0406 10.4991 37.9707C10.3177 37.9007 10.116 37.9056 9.93831 37.9844C9.7606 38.0631 9.62145 38.2092 9.55147 38.3906C9.48149 38.5719 9.48643 38.7736 9.56518 38.9513L9.61815 39.1419L9.67856 39.3579C9.92316 39.327 10.1645 39.2743 10.3997 39.2004C10.5736 39.1455 10.7433 39.0782 10.9076 38.9992H10.9104C10.9471 38.982 10.9829 38.9634 11.0191 38.9453C11.0251 38.9426 11.0308 38.9395 11.0363 38.936C11.0656 38.9216 11.0949 38.9058 11.1232 38.8895C11.1516 38.8733 11.1808 38.8575 11.2083 38.8403L11.0912 38.6512Z" fill="#CACACA"/>
<path d="M9.24554 37.2994C9.98824 37.2994 10.5903 36.6974 10.5903 35.9547C10.5903 35.212 9.98824 34.6099 9.24554 34.6099C8.50285 34.6099 7.90077 35.212 7.90077 35.9547C7.90077 36.6974 8.50285 37.2994 9.24554 37.2994Z" fill="#FFB6B6"/>
<path d="M11.1883 38.5931C11.04 38.3464 10.8558 38.1231 10.6419 37.9305C10.4954 37.7996 10.3058 37.7273 10.1093 37.7274H8.21485C8.10565 37.7273 7.9976 37.7496 7.89736 37.7929C7.79713 37.8363 7.70685 37.8997 7.63211 37.9793C7.55737 38.059 7.49977 38.1531 7.46285 38.2558C7.42593 38.3586 7.41048 38.4679 7.41747 38.5768C7.42161 38.6383 7.43268 38.6991 7.45047 38.7581C7.46393 38.8008 7.48071 38.8425 7.50065 38.8826L7.59358 39.0684L7.61543 39.0777C7.61543 39.0777 7.61822 39.0777 7.61915 39.0777C7.65772 39.0931 7.69628 39.1089 7.73532 39.1242C7.86411 39.1735 7.99549 39.2157 8.12889 39.2506C8.3436 39.3082 8.56277 39.3477 8.78408 39.3686C8.91326 39.3807 9.04197 39.3867 9.17208 39.3867C9.30219 39.3867 9.42766 39.3802 9.55359 39.3686C9.59494 39.3649 9.63583 39.3603 9.67719 39.3556C9.92179 39.3247 10.1631 39.272 10.3984 39.1981C10.5722 39.1431 10.7419 39.0759 10.9063 38.9969H10.909C10.9457 38.9797 10.9815 38.9611 11.0178 38.943L11.035 38.9337C11.0642 38.9193 11.0935 38.9035 11.1219 38.8872C11.1502 38.871 11.1795 38.8552 11.2069 38.838C11.2343 38.8208 11.2636 38.805 11.2919 38.7878C11.2608 38.7185 11.225 38.6544 11.1883 38.5931Z" fill="#CACACA"/>
<path d="M8.55779 37.9723C8.38247 37.8902 8.18179 37.881 7.99963 37.9464C7.81747 38.0119 7.66865 38.1468 7.5857 38.3217L7.41748 38.5764L7.33709 38.6981L7.21442 38.884L7.29016 38.9254L7.32408 38.9425C7.40261 38.983 7.48253 39.0211 7.56478 39.0568C7.57407 39.0615 7.58383 39.0652 7.59405 39.0699L7.6159 39.0792C7.6159 39.0792 7.61869 39.0792 7.61962 39.0792C7.65819 39.095 7.69675 39.1103 7.73579 39.1256C7.86457 39.1749 7.99595 39.2171 8.12936 39.252C8.34406 39.3097 8.56323 39.3491 8.78455 39.37L8.84868 39.153L8.91094 38.9463C8.99308 38.7703 9.00203 38.5688 8.93582 38.3862C8.86961 38.2036 8.73364 38.0548 8.55779 37.9723Z" fill="#CACACA"/>
<path d="M7.83241 35.1094C8.13954 35.322 8.50439 35.4356 8.87793 35.4347C8.74479 35.527 8.59324 35.5893 8.4337 35.6173C8.92994 35.7237 9.44279 35.7266 9.94018 35.6257C10.0508 35.608 10.1575 35.5713 10.2557 35.5174C10.3046 35.4901 10.3472 35.4528 10.3807 35.408C10.4143 35.3632 10.438 35.3118 10.4504 35.2572C10.4524 35.1612 10.4287 35.0664 10.3817 34.9826C10.3347 34.8989 10.2662 34.8292 10.1832 34.7809C9.94908 34.6066 9.67912 34.4864 9.39286 34.4292C9.10661 34.372 8.8112 34.3791 8.52803 34.45C8.33913 34.4885 8.1674 34.5862 8.03781 34.7289C7.97498 34.8011 7.93704 34.8917 7.92959 34.9871C7.92215 35.0826 7.94558 35.1779 7.99644 35.2591L7.83241 35.1094Z" fill="#2F2E41"/>
<path d="M7.15629 19.4978C7.24579 19.1741 7.40872 18.8754 7.63244 18.6249C7.85616 18.3744 8.13465 18.1789 8.44623 18.0535C8.80715 17.9767 9.18145 17.9901 9.53598 18.0924C9.8905 18.1948 10.2143 18.383 10.4787 18.6404C11.3477 19.5066 11.56 22.4824 10.9629 23.4224C10.8439 23.4159 10.4341 23.4112 10.3124 23.4071L10.1423 22.8402V23.4015C9.95085 23.3956 9.75785 23.3916 9.56331 23.3894C8.91119 23.3813 8.28761 23.1207 7.82365 22.6624C7.3597 22.2041 7.0915 21.5837 7.07544 20.9317C7.04263 20.4522 7.0698 19.9705 7.15629 19.4978Z" fill="#2F2E41"/>
<path d="M9.33704 21.6209C10.1021 21.6209 10.7222 21.0007 10.7222 20.2357C10.7222 19.4707 10.1021 18.8505 9.33704 18.8505C8.57202 18.8505 7.95184 19.4707 7.95184 20.2357C7.95184 21.0007 8.57202 21.6209 9.33704 21.6209Z" fill="#FFB9B9"/>
<path d="M8.14186 19.0192L9.73663 18.2208C10.0626 18.3678 10.3434 18.5993 10.5498 18.8913C10.7562 19.1833 10.8807 19.5252 10.9104 19.8816L10.9504 20.3579L10.2826 20.1878L10.2097 19.5791L10.0963 20.1404L9.7882 20.0619L9.79098 19.1167L9.48245 20.0614L8.38163 19.8086L8.14186 19.0192Z" fill="#2F2E41"/>
<path d="M13.0168 24.2946C12.1748 25.2525 10.9899 25.841 9.71782 25.9328C8.44576 26.0247 7.18858 25.6127 6.21765 24.7858L6.63586 23.6241C6.73006 23.4175 6.87869 23.2405 7.06582 23.112C7.25294 22.9835 7.47152 22.9083 7.69811 22.8945L7.96344 22.8783L8.59585 22.3327C8.59585 22.3327 10.2994 22.2719 10.2743 22.2426L11.3063 22.8634V22.8592L11.712 22.8838C11.9386 22.8976 12.1572 22.9727 12.3443 23.1012C12.5314 23.2298 12.6801 23.4068 12.7742 23.6134L13.0168 24.2946Z" fill="#02B69B"/>
<path d="M10.5 9C10.7761 9 11 8.77614 11 8.5C11 8.22386 10.7761 8 10.5 8C10.2239 8 10 8.22386 10 8.5C10 8.77614 10.2239 9 10.5 9Z" fill="#2F2E41"/>
<path d="M9.55 9C10.406 9 11.1 8.32843 11.1 7.5C11.1 6.67157 10.406 6 9.55 6C8.69396 6 8 6.67157 8 7.5C8 8.32843 8.69396 9 9.55 9Z" fill="#2F2E41"/>
<path d="M8.54256 7.43286C8.84807 7.21407 9.27515 7.07941 9.73365 7.0573C10.1922 7.03519 10.6462 7.12736 11 7.31435C10.9858 7.30561 10.971 7.29687 10.9563 7.28812C10.606 7.08834 10.1455 6.9853 9.67596 7.0017C9.20642 7.01809 8.76635 7.15257 8.45254 7.37554C8.13874 7.59852 7.97691 7.89173 8.00266 8.19066C8.02841 8.4896 8.23963 8.76978 8.58985 8.96957L8.60003 8.9754C8.61529 8.98381 8.63054 8.99191 8.6458 9C8.31294 8.79811 8.11627 8.5218 8.09729 8.22936C8.07831 7.93692 8.23851 7.65121 8.54408 7.43253L8.54256 7.43286Z" fill="#2F2E41"/>
<path d="M9.5 9C10.3284 9 11 8.55228 11 8C11 7.44772 10.3284 7 9.5 7C8.67157 7 8 7.44772 8 8C8 8.55228 8.67157 9 9.5 9Z" fill="#FFB9B9"/>
<path d="M8.01535 7.86887C8.01535 7.89848 8.01535 7.92696 8.01983 7.95347C8.01983 7.96954 8.01983 7.98505 8.02431 8H8.02881L8.0929 7.98787C8.19611 7.96813 8.29612 7.94698 8.39485 7.92442L8.43781 7.91483C8.54294 7.8903 8.6455 7.86463 8.74679 7.837C8.74679 7.8229 8.73974 7.8088 8.73525 7.79498C8.72499 7.76424 8.71731 7.73293 8.71154 7.70191C8.67572 7.48508 8.76502 7.26779 8.97116 7.07021C8.98911 7.05414 9 7.04539 9 7.04539C8.90659 7.01587 8.79448 7 8.67947 7C8.56446 7 8.45235 7.01587 8.35895 7.04539C8.33438 7.05156 8.31263 7.05969 8.29484 7.06937C8.05566 7.32195 7.95975 7.59634 8.01535 7.86887Z" fill="#2F2E41"/>
<path d="M9 7V7.4H9.1333L9.303 7.27373L9.28019 7.4H9.86978L9.83338 7.27373L9.90618 7.4H10V7H9Z" fill="#2F2E41"/>
<path d="M20.6154 29.643C20.6705 29.67 20.7235 29.7018 20.7739 29.7379L25.8086 27.4347L25.988 26.013L28 26L27.8828 29.2619L21.2374 31.146C21.224 31.1955 21.2077 31.244 21.1888 31.2914C21.0927 31.5111 20.9382 31.6955 20.7446 31.8214C20.5511 31.9472 20.3272 32.009 20.101 31.9989C19.8748 31.9889 19.6565 31.9074 19.4734 31.7647C19.2903 31.6221 19.1505 31.4246 19.0718 31.1971C18.993 30.9696 18.9787 30.7222 19.0307 30.486C19.0826 30.2499 19.1985 30.0354 19.3638 29.8696C19.5291 29.7038 19.7364 29.594 19.9596 29.5541C20.1829 29.5141 20.4123 29.5458 20.6188 29.6451L20.6154 29.643Z" fill="#FFB9B9"/>
<path d="M28 56H26.6446L26 51H28V56Z" fill="#FFB9B9"/>
<path d="M26.5455 55.0006H29V57H25C25 56.4696 25.1628 55.9609 25.4527 55.5858C25.7425 55.2107 26.1356 55.0006 26.5455 55.0006Z" fill="#2F2E41"/>
<path d="M34 55.8508L32.3835 56L31 50.2203L33.3858 50L34 55.8508Z" fill="#FFB9B9"/>
<path d="M31.2341 55.2546L33.7577 55.006L33.9142 56.595L29.8017 57C29.7602 56.5786 29.8878 56.158 30.1564 55.8306C30.4251 55.5033 30.8127 55.2961 31.2341 55.2546Z" fill="#2F2E41"/>
<path d="M28.5 16C28.9945 16 29.4778 16.1466 29.8889 16.4213C30.3 16.696 30.6205 17.0865 30.8097 17.5433C30.9989 18.0001 31.0484 18.5028 30.952 18.9877C30.8555 19.4727 30.6174 19.9181 30.2678 20.2678C29.9181 20.6174 29.4727 20.8555 28.9877 20.952C28.5028 21.0484 28.0001 20.9989 27.5433 20.8097C27.0865 20.6205 26.696 20.3 26.4213 19.8889C26.1466 19.4778 26 18.9945 26 18.5C26 17.837 26.2634 17.2011 26.7322 16.7322C27.2011 16.2634 27.837 16 28.5 16Z" fill="#FFB9B9"/>
<path d="M26.5976 55C26.4792 55.0003 26.3644 54.9596 26.2736 54.8852C26.1828 54.8108 26.1218 54.7074 26.1014 54.5933C25.3884 50.7217 23.0565 38.06 23.0005 37.709C22.9998 37.7009 22.9998 37.6928 23.0005 37.6847V36.7407C23.0005 36.7066 23.0113 36.6733 23.0316 36.6455L23.3394 36.2235C23.3541 36.2032 23.3733 36.1865 23.3956 36.1746C23.4179 36.1628 23.4427 36.156 23.468 36.1549C25.2242 36.0744 30.975 35.8387 31.2531 36.1778C31.5322 36.5183 31.4333 37.5528 31.4104 37.7561V37.7771L33.9941 53.9365C34.0144 54.0653 33.9819 54.1968 33.9038 54.3024C33.8257 54.408 33.7082 54.4793 33.5767 54.5009L31.9632 54.7609C31.843 54.7798 31.7198 54.7559 31.6161 54.6935C31.5124 54.6311 31.4351 54.5343 31.3982 54.4208C30.899 52.8611 29.2256 47.6145 28.6456 45.5841C28.642 45.5712 28.6337 45.56 28.6223 45.5527C28.6109 45.5453 28.5972 45.5423 28.5837 45.5442C28.5701 45.546 28.5578 45.5527 28.5489 45.5629C28.5401 45.573 28.5353 45.586 28.5355 45.5994C28.5647 47.5349 28.6329 52.4724 28.6592 54.1779L28.6617 54.3618C28.6627 54.4861 28.616 54.6064 28.5308 54.6987C28.4456 54.791 28.3281 54.8487 28.2014 54.8604L26.6429 54.9981C26.6279 54.9994 26.6128 55.0001 26.5976 55Z" fill="#2F2E41"/>
<path d="M27.0148 22.241C26.5249 22.5413 26.1753 22.9922 26.0325 23.5079C25.7109 24.439 25.5174 25.4016 25.4561 26.3746L25.2725 29.288L23 37.012C24.9698 38.5025 26.1061 38.1636 28.7576 36.9443C31.4091 35.7249 31.7123 37.3509 31.7123 37.3509L32.2426 30.7786L33 23.598C32.83 23.4148 32.6375 23.2493 32.4262 23.1045C31.7258 22.6172 30.9108 22.2785 30.0427 22.1139C29.1745 21.9494 28.276 21.9632 27.4147 22.1545L27.0148 22.241Z" fill="#02B69B"/>
<path d="M26.4135 30.7859C26.4652 30.8071 26.5153 30.8326 26.5634 30.8623L30.9989 28.4462L31.0726 27.1372L32.9021 27L33 29.9834L27.0725 32.1166C27.0242 32.3425 26.9138 32.5472 26.7559 32.7032C26.5981 32.8592 26.4004 32.9592 26.189 32.9899C25.9777 33.0207 25.7627 32.9807 25.5728 32.8752C25.3829 32.7698 25.2269 32.6039 25.1257 32.3997C25.0246 32.1955 24.9829 31.9625 25.0064 31.7319C25.0298 31.5013 25.1172 31.2839 25.2569 31.1087C25.3967 30.9334 25.5822 30.8086 25.7887 30.7509C25.9952 30.6932 26.213 30.7052 26.413 30.7854L26.4135 30.7859Z" fill="#FFB9B9"/>
<path d="M32.5855 23.1701C33.788 23.6186 34 28.4768 34 28.4768C32.585 27.6545 30.8873 29 30.8873 29C30.8873 29 30.5335 27.7292 30.1089 26.0851C29.9808 25.6226 29.9654 25.1334 30.0644 24.6629C30.1633 24.1925 30.3733 23.7562 30.6748 23.3946C30.9468 23.1836 31.2664 23.0519 31.6017 23.0125C31.9371 22.9731 32.2763 23.0274 32.5855 23.1701Z" fill="#02B69B"/>
<path d="M31.5608 18.8128C31.1956 18.5839 30.6969 19 30.6969 19L30.4046 16.9398C29.4076 17.0337 28.3985 17.0144 27.4084 16.8827C26.2389 16.6542 26.0568 17.7124 26.0568 17.7124C25.9965 17.2849 25.9842 16.8541 26.0201 16.4249C26.093 15.9099 27.0433 15.3946 28.7239 15.0514C30.4046 14.7082 31.2814 16.1959 31.2814 16.1959C32.4505 16.6534 31.926 19.0417 31.5608 18.8128Z" fill="#2F2E41"/>
<path d="M14.908 14.31C13.4998 13.2816 11.8229 12.6847 10.0816 12.5919C8.34027 12.4991 6.6095 12.9144 5.0999 13.7873C3.5903 14.6602 2.36697 15.9531 1.57875 17.5086C0.79054 19.0641 0.471423 20.8152 0.660254 22.5487C0.849085 24.2823 1.53772 25.9236 2.64234 27.2729C3.74697 28.6222 5.21997 29.6214 6.8821 30.1488C8.54423 30.6763 10.3238 30.7092 12.0044 30.2437C13.6849 29.7782 15.1939 28.8342 16.3477 27.5267L28.0043 36.0427C28.182 36.1646 28.4002 36.2124 28.6126 36.1762C28.825 36.1399 29.015 36.0223 29.1422 35.8484C29.2694 35.6744 29.3238 35.4577 29.294 35.2443C29.2641 35.0309 29.1524 34.8375 28.9823 34.7051L17.3234 26.1893C18.4733 24.2642 18.8628 21.9791 18.4156 19.7819C17.9683 17.5846 16.7166 15.6336 14.9058 14.3111L14.908 14.31ZM14.9767 25.454C14.1904 26.5308 13.1025 27.3503 11.8505 27.8088C10.5985 28.2673 9.23866 28.3442 7.94294 28.0298C6.64722 27.7154 5.47385 27.0238 4.57122 26.0425C3.66858 25.0612 3.07725 23.8342 2.872 22.5168C2.66674 21.1994 2.8568 19.8507 3.41811 18.6413C3.97943 17.4319 4.8868 16.4161 6.02546 15.7224C7.16412 15.0287 8.48292 14.6883 9.81507 14.7442C11.1472 14.8001 12.4329 15.2498 13.5094 16.0364C14.9525 17.0909 15.9178 18.6754 16.1929 20.4414C16.4681 22.2074 16.0306 24.0104 14.9767 25.454Z" fill="#3F3D56"/>
<defs>
<linearGradient id="paint0_linear_1_272" x1="1" y1="0" x2="45" y2="42.768" gradientUnits="userSpaceOnUse">
<stop stop-color="white"/>
<stop offset="1" stop-color="white"/>
</linearGradient>
</defs>
</svg>
