<svg width="62" height="49" viewBox="0 0 62 49" fill="none" xmlns="http://www.w3.org/2000/svg">
<g clip-path="url(#clip0_1_108)">
<path d="M49.2898 48.288L48.294 48.2879L47.8203 44.4598L49.29 44.4599L49.2898 48.288Z" fill="#FFB6B6"/>
<path d="M45.8781 48.2655C45.8471 48.3175 45.8307 48.4855 45.8307 48.546C45.8307 48.7321 45.982 48.8829 46.1687 48.8829H49.2526C49.3799 48.8829 49.4831 48.78 49.4831 48.6531V48.5251C49.4831 48.5251 49.6357 48.1405 49.3216 47.6665C49.3216 47.6665 48.9312 48.0377 48.3479 47.4563L48.1759 47.1457L46.9308 48.0533L46.2406 48.138C46.0896 48.1565 45.9558 48.1351 45.8781 48.2655Z" fill="#2F2E41"/>
<path d="M44.7623 48.288L43.7665 48.2879L43.2928 44.4598L44.7625 44.4599L44.7623 48.288Z" fill="#FFB6B6"/>
<path d="M41.3506 48.2655C41.3196 48.3175 41.3032 48.4855 41.3032 48.546C41.3032 48.7321 41.4545 48.8829 41.6412 48.8829H44.7251C44.8524 48.8829 44.9556 48.78 44.9556 48.6531V48.5251C44.9556 48.5251 45.1082 48.1405 44.7941 47.6665C44.7941 47.6665 44.4037 48.0377 43.8204 47.4563L43.6484 47.1457L42.4033 48.0533L41.7131 48.138C41.5621 48.1565 41.4283 48.1351 41.3506 48.2655Z" fill="#2F2E41"/>
<path d="M50.8878 24.388L43.958 24.5722L43.2516 26.2298L42.3872 37.0042L43.1264 46.4893H45.2843V37.5371L46.9147 32.0314L47.5615 46.213L49.7892 46.4893L50.703 36.7279L51.5346 27.4269L50.8878 24.388Z" fill="#2F2E41"/>
<path d="M48.4258 12.0481L46.0235 12.1401L45.7463 13.2452C45.7463 13.2452 42.7896 14.074 42.9744 15.1791C43.1592 16.2841 44.0831 21.1649 44.0831 21.1649C44.0831 21.1649 43.0668 24.2959 43.7135 24.6642C44.3603 25.0326 51.0253 24.6642 51.0253 24.6642C51.0253 24.6642 51.5674 23.2829 51.2902 23.0987C51.013 22.9146 52.1217 14.074 51.9369 13.8898C51.7521 13.7057 48.703 12.7848 48.703 12.7848L48.4258 12.0481Z" fill="#02B69B"/>
<path d="M53.1381 21.257L53.3229 22.5462L51.2902 27.1506L50.2738 26.5981L51.3826 22.2699L51.5674 20.6123L53.1381 21.257Z" fill="#FFB6B6"/>
<path d="M51.1978 13.9819C51.1978 13.9819 52.2141 13.5215 52.9533 15.1791C53.6925 16.8367 53.5077 20.4282 53.5077 20.4282C53.5077 20.4282 53.7849 20.7044 53.6001 20.8886C53.4153 21.0728 53.0641 20.6394 53.4153 21.225C53.6001 21.5332 54.1545 21.4411 53.6001 21.5332C53.0457 21.6253 53.24 21.3679 53.4153 21.7174C53.5077 21.9016 53.8773 21.9016 53.5077 21.9937C53.1381 22.0857 51.2785 21.9277 51.2785 21.9277C51.2785 21.9277 50.6434 21.6253 51.013 21.4411C51.3826 21.257 51.5673 21.2207 51.3826 21.1467C51.1978 21.0728 50.7358 21.0728 51.013 20.7965C51.2902 20.5202 51.4749 20.5202 51.2902 20.5202C51.1054 20.5202 50.8974 20.0765 50.8974 20.0765L51.1978 13.9819Z" fill="#02B69B"/>
<path d="M51.1744 27.9234C51.3995 27.2517 51.2576 26.5992 50.8575 26.466C50.4574 26.3327 49.9505 26.7692 49.7253 27.4409C49.5002 28.1126 49.642 28.7651 50.0422 28.8983C50.4423 29.0316 50.9492 28.5951 51.1744 27.9234Z" fill="#FFB6B6"/>
<path d="M40.2666 20.8208L39.5315 21.8975L34.9167 23.9349L34.5392 22.8441L38.2845 20.3904L39.5416 19.2896L40.2666 20.8208Z" fill="#FFB6B6"/>
<path d="M43.7509 14.142C43.7509 14.142 44.8133 14.4843 44.2389 16.2055C43.6645 17.9267 41.1 20.4565 41.1 20.4565C41.1 20.4565 41.118 20.8468 40.857 20.8588C40.5959 20.8708 40.6294 20.3147 40.493 20.9833C40.4212 21.3351 40.8931 21.6394 40.4212 21.3351C39.9493 21.0309 40.2668 20.9712 40.1601 21.3471C40.1039 21.5453 40.377 21.7935 40.0416 21.6133C39.7063 21.4332 38.439 20.0676 38.439 20.0676C38.439 20.0676 38.1741 19.4177 38.5717 19.5298C38.9693 19.6418 39.1304 19.7392 39.0438 19.5604C38.9573 19.3817 38.6159 19.0714 39.0075 19.0534C39.3991 19.0354 39.5356 19.1595 39.3991 19.0354C39.2625 18.9113 39.4089 18.4438 39.4089 18.4438L43.7509 14.142Z" fill="#02B69B"/>
<path d="M34.3087 24.4281C34.9292 24.083 35.2655 23.5055 35.0598 23.1384C34.8542 22.7712 34.1846 22.7534 33.5641 23.0985C32.9437 23.4437 32.6074 24.0211 32.813 24.3882C33.0186 24.7554 33.6883 24.7732 34.3087 24.4281Z" fill="#FFB6B6"/>
<path d="M47.3294 11.5979C48.5549 11.5979 49.5484 10.6078 49.5484 9.38636C49.5484 8.16495 48.5549 7.1748 47.3294 7.1748C46.1039 7.1748 45.1104 8.16495 45.1104 9.38636C45.1104 10.6078 46.1039 11.5979 47.3294 11.5979Z" fill="#FFB6B6"/>
<path d="M45.557 7.60754C45.6699 7.28838 45.9831 7.09475 46.3226 7.10229C46.337 7.10261 46.3514 7.10247 46.3656 7.10189C46.5366 7.09492 46.7007 7.03673 46.8683 7.00259C47.1807 6.93895 47.5101 6.96026 47.8117 7.06359C47.9054 7.09572 47.9993 7.13611 48.0984 7.13612C48.1975 7.13614 48.3055 7.08197 48.3297 6.98617C48.3354 7.0729 48.3411 7.15963 48.3469 7.24636C48.3791 7.17616 48.4114 7.10596 48.4436 7.03576L48.5082 7.31572L48.7152 7.08174C48.6967 7.18487 48.757 7.28881 48.8387 7.35474C48.9203 7.42068 49.0212 7.45716 49.1179 7.49823C49.5353 7.67554 49.9272 7.98946 50.0474 8.42547C50.1234 8.70093 50.0837 8.99329 50.0434 9.27613C50.0078 9.52619 49.9691 9.78488 49.8327 9.99773C49.7453 10.1342 49.6193 10.249 49.5661 10.402C49.5165 10.5445 49.5353 10.7078 49.4647 10.8413C49.3938 10.9754 49.2474 11.0513 49.1042 11.1022C48.961 11.1532 48.8087 11.1892 48.6854 11.2779C48.562 11.3666 48.4189 11.622 48.1501 11.6083L48.0634 11.4459C47.9742 11.3734 48.3044 11.4309 48.3078 11.3162C48.3113 11.2016 47.9105 11.1307 47.9673 11.031C48.0544 10.878 48.1723 10.7448 48.2704 10.5986C48.3852 10.4276 48.4755 10.2279 48.4359 10.0192C48.4205 9.93799 48.3823 9.8613 48.3243 9.80234C48.1569 9.63234 47.9702 9.70706 47.7888 9.73138C47.6638 9.74815 47.5145 9.72879 47.4496 9.62098C47.3737 9.49485 47.4583 9.3344 47.4479 9.18767C47.437 9.03219 47.3188 8.9047 47.1902 8.81606C47.0615 8.72742 46.9155 8.66284 46.7998 8.55801C46.6841 8.45316 46.7024 8.50754 46.7528 8.36001C45.8925 9.00309 46.0196 7.89273 45.442 8.03152C45.4696 7.88757 45.5081 7.74573 45.557 7.60754Z" fill="#2F2E41"/>
<path d="M35.0044 47.1509C34.7784 47.2686 34.5521 47.4278 34.3808 47.7097C34.3485 47.7628 34.3197 47.8207 34.2928 47.8806C34.3688 47.3416 34.5203 46.8344 34.7388 46.412C34.8194 46.2562 34.684 46.0278 34.6029 46.1846C34.2565 46.3639 34.1106 46.7832 34.0549 47.2797C33.9861 47.1019 33.9014 46.9414 33.8027 46.8079C33.7624 46.7534 33.7062 46.742 33.6668 46.8079C33.633 46.8643 33.6262 46.9804 33.6668 47.0353C33.5178 47.8154 33.9024 48.0571 34.0352 48.4455C34.0382 48.5317 34.0414 48.6167 34.0443 48.6997C34.0473 48.7821 34.0786 48.8312 34.1151 48.8479C34.1328 48.8938 34.1647 48.9255 34.1972 48.9255C34.2517 48.9255 34.2904 48.8518 34.2933 48.7647C34.304 48.4454 34.3368 47.8909 34.5271 47.9203C34.9323 47.983 34.951 47.6563 35.0556 47.4609C35.1378 47.3072 35.123 47.0891 35.0044 47.1509Z" fill="#E6E6E6"/>
<path d="M55.3825 47.1509C55.6086 47.2686 55.8348 47.4278 56.0062 47.7097C56.0385 47.7628 56.0672 47.8207 56.0942 47.8806C56.0182 47.3416 55.8666 46.8344 55.6482 46.412C55.5676 46.2562 55.703 46.0278 55.7841 46.1846C56.1304 46.3639 56.2763 46.7832 56.332 47.2797C56.4009 47.1019 56.4855 46.9414 56.5843 46.8079C56.6246 46.7534 56.6808 46.742 56.7202 46.8079C56.7539 46.8643 56.7608 46.9804 56.7202 47.0353C56.8692 47.8154 56.4845 48.0571 56.3517 48.4455C56.3488 48.5317 56.3456 48.6167 56.3426 48.6997C56.3397 48.7821 56.3083 48.8312 56.2718 48.8479C56.2541 48.8938 56.2222 48.9255 56.1897 48.9255C56.1353 48.9255 56.0965 48.8518 56.0936 48.7647C56.0829 48.4454 56.0501 47.8909 55.8599 47.9203C55.4547 47.983 55.4359 47.6563 55.3314 47.4609C55.2492 47.3072 55.2639 47.0891 55.3825 47.1509Z" fill="#E6E6E6"/>
<path d="M17.9797 48.8725C17.9797 48.9432 18.0367 49 18.1077 49H61.4771C61.5481 49 61.6051 48.9432 61.6051 48.8725C61.6051 48.8017 61.5481 48.7449 61.4771 48.7449H18.1077C18.0367 48.7449 17.9797 48.8017 17.9797 48.8725Z" fill="#CCCCCC"/>
<path d="M22.7147 49H4.11337C1.84526 49 0 47.1242 0 44.8185V4.18144C-1.05435e-06 1.8758 1.84526 0 4.11337 0H22.7147C24.9828 0 26.828 1.8758 26.828 4.18144V44.8185C26.828 47.1242 24.9828 49 22.7147 49Z" fill="#3F3D56"/>
<path d="M27.0764 15C26.9394 15 26.828 15.0791 26.828 15.1765V20.8235C26.828 20.9209 26.9394 21 27.0764 21C27.2134 21 27.3248 20.9209 27.3248 20.8235V15.1765C27.3248 15.0791 27.2134 15 27.0764 15Z" fill="#3F3D56"/>
<path d="M25.8344 3.84627V45.1537C25.8344 47.1937 24.3689 48.8624 22.5158 48.9919H22.515C22.4876 48.9937 22.4602 48.9955 22.432 48.9964C22.3831 48.9991 22.3341 49 22.2843 49C22.2843 49 22.1017 48.9856 21.7681 48.9586C21.4312 48.9317 20.9408 48.8912 20.3292 48.8382C20.1458 48.8229 19.9524 48.8058 19.7483 48.7878C19.3417 48.7519 18.8952 48.7123 18.4164 48.6673C18.2255 48.6503 18.028 48.6314 17.8264 48.6125C16.7957 48.5163 15.6414 48.4039 14.424 48.2762C14.2182 48.2556 14.0107 48.234 13.8016 48.2115C13.7468 48.2052 13.6912 48.1998 13.6356 48.1935C12.7676 48.1009 0.993637 45.6356 0.993637 45.1537V3.84627C0.993636 1.72175 2.5828 0 4.54373 0H6.66317C7.00175 0 7.27393 0.285908 7.30298 0.651835C7.30547 0.676113 7.30796 0.700383 7.31211 0.724661C7.37352 1.09239 7.68471 1.34862 8.02993 1.34862H18.7981C19.1433 1.34862 19.4545 1.09239 19.5159 0.724661C19.5201 0.700383 19.5226 0.676113 19.5251 0.651835C19.5541 0.285908 19.8263 0 20.1649 0H22.2843C24.2452 0 25.8344 1.72175 25.8344 3.84627Z" fill="white"/>
<path d="M0.177488 10.7022C0.0796005 10.7022 0 10.7815 0 10.8791V12.2942C0 12.3918 0.0796016 12.4711 0.177488 12.4711C0.275374 12.4711 0.354976 12.3918 0.354976 12.2942V10.8791C0.354976 10.7815 0.275374 10.7022 0.177488 10.7022Z" fill="#3F3D56"/>
<path d="M0.177488 14.9477C0.0796005 14.9477 0 15.027 0 15.1245V17.8664C0 17.964 0.0796016 18.0433 0.177488 18.0433C0.275374 18.0433 0.354976 17.964 0.354976 17.8664V15.1245C0.354976 15.027 0.275374 14.9477 0.177488 14.9477Z" fill="#3F3D56"/>
<path d="M0.177488 18.8393C0.0796005 18.8393 0 18.9187 0 19.0162V21.7581C0 21.8557 0.0796016 21.935 0.177488 21.935C0.275374 21.935 0.354976 21.8557 0.354976 21.7581V19.0162C0.354976 18.9187 0.275374 18.8393 0.177488 18.8393Z" fill="#3F3D56"/>
<path d="M6.66683 1.01716H3.27253C3.2541 1.01716 3.23917 1.03205 3.23917 1.05041V1.42615C3.23917 1.44452 3.2541 1.4594 3.27253 1.4594H6.66683C6.68526 1.4594 6.70019 1.44452 6.70019 1.42615V1.05041C6.70019 1.03205 6.68526 1.01716 6.66683 1.01716Z" fill="#E6E6E6"/>
<path d="M21.7282 1.4594C21.9242 1.4594 22.0832 1.301 22.0832 1.10561C22.0832 0.910217 21.9242 0.75182 21.7282 0.75182C21.5321 0.75182 21.3732 0.910217 21.3732 1.10561C21.3732 1.301 21.5321 1.4594 21.7282 1.4594Z" fill="#E6E6E6"/>
<path d="M22.7044 1.4594C22.9004 1.4594 23.0594 1.301 23.0594 1.10561C23.0594 0.910217 22.9004 0.75182 22.7044 0.75182C22.5083 0.75182 22.3494 0.910217 22.3494 1.10561C22.3494 1.301 22.5083 1.4594 22.7044 1.4594Z" fill="#E6E6E6"/>
<path d="M23.6806 1.4594C23.8766 1.4594 24.0355 1.301 24.0355 1.10561C24.0355 0.910217 23.8766 0.75182 23.6806 0.75182C23.4845 0.75182 23.3256 0.910217 23.3256 1.10561C23.3256 1.301 23.4845 1.4594 23.6806 1.4594Z" fill="#E6E6E6"/>
<path d="M26.2706 46.6848L27.0897 46.4793L26.5303 42.7102L25.3215 43.0135L26.2706 46.6848Z" fill="#FFB6B6"/>
<path d="M29.533 47.606C29.5711 47.743 29.5044 47.881 29.3841 47.9142L27.7688 48.3603C27.7688 48.3603 27.4328 47.7674 26.7085 47.6723L26.917 48.5955L26.0837 48.8256L25.7775 47.3331C25.7775 47.3331 25.3367 46.611 25.6883 46.0826C26.0399 45.5542 25.6804 45.7135 25.6804 45.7135L25.6105 44.7567L26.9107 44.5565L27.3156 45.977L28.3193 47.2208L29.3383 47.4146C29.429 47.4318 29.5055 47.507 29.533 47.606Z" fill="#2F2E41"/>
<path d="M18.4254 46.0299L19.2151 46.3287L20.9213 42.919L19.7559 42.4781L18.4254 46.0299Z" fill="#FFB6B6"/>
<path d="M20.5714 48.6465C20.5239 48.7805 20.39 48.8557 20.2722 48.8143L18.6915 48.2584C18.6915 48.2584 18.7566 47.5806 18.2173 47.0894L17.858 47.9653L17.0426 47.6786L17.6488 46.2801C17.6488 46.2801 17.7021 45.4366 18.2939 45.2039C18.8856 44.9712 18.4994 44.8967 18.4994 44.8967L18.9916 44.0723L20.1727 44.65L19.6888 46.0457L19.7975 47.6382L20.5217 48.3784C20.5861 48.4443 20.6057 48.5496 20.5714 48.6465Z" fill="#2F2E41"/>
<path d="M21.8542 12.321H17.6631C17.6693 12.125 17.6273 11.929 17.5413 11.7535C17.5392 11.9484 17.4952 12.1434 17.4143 12.321H17.2238C16.9329 12.321 16.6963 12.0852 16.6963 11.7953V9.08108C16.6963 7.75202 17.744 6.65673 19.0755 6.59344C19.1155 6.5914 19.1544 6.59037 19.1943 6.59037C20.2789 6.59037 21.2478 7.29165 21.5776 8.3308C22.0621 8.10827 22.3519 9.37302 22.5445 11.3819C22.691 11.8474 22.3427 12.321 21.8542 12.321Z" fill="#2F2E41"/>
<path d="M30.0783 27.8391C30.2861 28.3299 30.2004 28.8347 29.887 28.9665C29.5736 29.0982 29.1511 28.8071 28.9433 28.3162C28.8524 28.1013 28.8177 27.8838 28.8337 27.6961L27.9795 25.605L28.9726 25.2264L29.7092 27.328C29.8553 27.4476 29.9874 27.6242 30.0783 27.8391Z" fill="#FFB6B6"/>
<path d="M20.8955 11.4023L18.8923 11.82L19.1995 12.7387L18.585 19.7652L19.6092 22.0278L25.8568 21.5174L24.3205 18.4551C24.3205 18.4551 24.935 15.9031 24.1157 15.3927C23.2963 14.8823 21.9649 12.3304 21.9649 12.3304L20.8955 11.4023Z" fill="#02B69B"/>
<path d="M19.0281 12.2263L17.2535 12.9428L17.8681 21.9257L16.5366 29.6836L20.8382 30.3982C20.8382 30.3982 20.3261 13.2491 20.0189 12.9428C19.7116 12.6366 19.0281 12.2263 19.0281 12.2263Z" fill="#2F2E41"/>
<path d="M22.5039 13.3469C22.5039 13.3469 23.6586 12.6187 24.2825 13.1579C24.9064 13.697 29.7097 26.7297 29.7097 26.7297L28.4141 27.2907L25.4428 21.0817L22.5039 13.3469Z" fill="#2F2E41"/>
<path d="M25.8118 35.3051L26.9834 44.2808L25.3447 44.3828C25.3447 44.3828 24.4926 42.0657 23.5206 39.3361C23.3137 38.7573 23.1017 38.1602 22.8918 37.562C22.6644 36.9128 22.438 36.2636 22.223 35.6368C21.6914 34.0913 21.2254 32.6847 20.9591 31.766C20.913 31.6047 20.872 31.4588 20.8382 31.3301C20.1213 28.5863 19.7116 21.4153 19.7116 21.4153L25.652 20.9049L25.7155 20.9835L26.9835 22.5627L26.924 22.8965L25.3447 31.7252L25.8118 35.3051Z" fill="#2F2E41"/>
<path d="M25.3447 31.7252L25.8118 35.3051L23.7111 38.9911L23.5206 39.3361L20.6283 44.5748L19.1995 43.7673C19.1995 43.7673 21.0584 39.5096 22.223 35.6368C22.352 35.2111 22.4718 34.7896 22.5794 34.3792C22.8959 33.1777 22.3776 30.9851 22.5804 30.3808C23.2656 28.3413 25.4984 24.2612 26.5348 22.4126L26.924 22.8965L25.3447 31.7252Z" fill="#2F2E41"/>
<path d="M21.9389 12.2527L24.0133 13.0449L29.4415 28.867L26.1641 29.3774L24.6278 20.1904L21.9389 12.2527Z" fill="#2F2E41"/>
<path d="M16.7525 29.3314C16.6998 29.8616 16.3825 30.2642 16.044 30.2307C15.7055 30.1972 15.4739 29.7403 15.5267 29.2101C15.5498 28.9781 15.6236 28.7704 15.7276 28.6131L15.9796 26.3694L17.0336 26.5097L16.6733 28.7067C16.7443 28.8813 16.7757 29.0993 16.7525 29.3314Z" fill="#FFB6B6"/>
<path d="M17.9705 12.9428C17.9705 12.9428 16.639 12.6366 16.2293 13.3512C15.8196 14.0657 15.6148 27.9483 15.6148 27.9483L17.0237 28.0504L17.7656 21.2112L17.9705 12.9428Z" fill="#2F2E41"/>
<path d="M19.6697 11.1548C20.8455 11.1548 21.7988 10.2047 21.7988 9.03283C21.7988 7.86092 20.8455 6.9109 19.6697 6.9109C18.4939 6.9109 17.5406 7.86092 17.5406 9.03283C17.5406 10.2047 18.4939 11.1548 19.6697 11.1548Z" fill="#FFB6B6"/>
<path d="M22.3424 8.85038C22.3424 8.85038 21.3052 8.54415 20.6842 8.85038C19.8213 9.27595 17.6181 8.85038 17.6181 8.85038V7.89114C17.6181 7.33114 18.0365 6.85877 18.594 6.78931L20.1839 6.59124C21.4319 6.43576 22.5342 7.40562 22.5342 8.65913C22.5342 8.76475 22.4483 8.85038 22.3424 8.85038Z" fill="#2F2E41"/>
<path d="M20.0762 12.321H17.6631C17.6693 12.125 17.6273 11.929 17.5413 11.7535C17.5392 11.9484 17.4952 12.1434 17.4143 12.321H17.3108V8.03376H19.1544L20.0762 12.321Z" fill="#2F2E41"/>
</g>
<defs>
<clipPath id="clip0_1_108">
<rect width="61.6051" height="49" fill="white"/>
</clipPath>
</defs>
</svg>
