<svg width="49" height="63" viewBox="0 0 49 63" fill="none" xmlns="http://www.w3.org/2000/svg">
<path d="M48.0128 47.7537H1.33163V0.0144348H48.0128V47.7537Z" fill="url(#paint0_linear_1_56)"/>
<path d="M47.9037 47.8322H1.22259V0.0930023H47.9037V47.8322ZM1.91207 47.1261H47.2142V0.798122H1.91207V47.1261Z" fill="#E5E5E5"/>
<path d="M39.6344 7.56194H19.4192V8.20508H39.6344V7.56194Z" fill="#E5E5E5"/>
<path d="M39.6344 9.23647H19.4192V9.87961H39.6344V9.23647Z" fill="#E5E5E5"/>
<path d="M39.6344 10.9105H19.4192V11.5536H39.6344V10.9105Z" fill="#E5E5E5"/>
<path d="M39.6344 21.9392H19.4192V22.5823H39.6344V21.9392Z" fill="#E5E5E5"/>
<path d="M39.6344 23.6137H19.4192V24.2569H39.6344V23.6137Z" fill="#E5E5E5"/>
<path d="M39.6344 25.2877H19.4192V25.9309H39.6344V25.2877Z" fill="#E5E5E5"/>
<path d="M39.6344 36.3164H19.4192V36.9596H39.6344V36.3164Z" fill="#E5E5E5"/>
<path d="M39.6344 37.991H19.4192V38.6341H39.6344V37.991Z" fill="#E5E5E5"/>
<path d="M39.6344 39.665H19.4192V40.3082H39.6344V39.665Z" fill="#E5E5E5"/>
<path d="M7.72045 13.0233L7.60012 12.4685H7.2756C7.16275 12.4783 7.05408 12.5168 6.95945 12.5805C6.89521 12.6223 6.83808 12.6746 6.79029 12.7353C6.88351 12.8074 6.98067 12.8745 7.0803 12.9371H7.08474C7.11334 12.9547 7.14244 12.9729 7.17154 12.9875C7.22382 13.0198 7.27806 13.0501 7.33182 13.0793L7.36585 13.097C7.44476 13.1388 7.52466 13.1782 7.60703 13.215L7.65635 13.2372H7.6598C7.69827 13.2538 7.73723 13.2695 7.77619 13.2841L7.72045 13.0233Z" fill="#CACACA"/>
<path d="M11.3262 12.693C10.9809 12.5069 10.6205 12.3518 10.249 12.2294L10.1997 11.6933L8.27625 11.4814L8.02965 12.1664L7.33918 12.4312C7.31448 12.4408 7.29097 12.4533 7.26915 12.4685C7.23027 12.4949 7.19709 12.5291 7.17165 12.5691C7.1462 12.6091 7.12903 12.654 7.12119 12.701C7.11376 12.7476 7.11542 12.7953 7.12612 12.8412L7.16262 12.9926C7.21489 13.0248 7.26915 13.0551 7.32291 13.0844L7.35694 13.102C7.43585 13.1439 7.51574 13.1832 7.59811 13.22L7.64743 13.2422H7.65089C7.68936 13.2589 7.72832 13.2745 7.76728 13.2891C7.89642 13.3396 8.02812 13.3829 8.16183 13.4188C8.50356 13.5119 8.85573 13.5591 9.2094 13.559C9.33861 13.559 9.46584 13.5529 9.5921 13.5403C9.88017 13.5131 10.1646 13.4545 10.4404 13.3653C10.6147 13.3086 10.7849 13.2396 10.9499 13.159H10.9528C10.9898 13.1414 11.0258 13.1217 11.0623 13.103L11.0796 13.0939L11.1669 13.046C11.2399 13.0052 11.3114 12.9618 11.3819 12.9154C11.4017 12.9033 11.4204 12.8907 11.4401 12.8776C11.4677 12.8589 11.4954 12.8397 11.5225 12.8196C11.4702 12.7757 11.3997 12.7333 11.3262 12.693Z" fill="#CACACA"/>
<path d="M9.16601 11.143C9.93032 11.143 10.5499 10.5094 10.5499 9.72772C10.5499 8.94608 9.93032 8.31244 9.16601 8.31244C8.4017 8.31244 7.7821 8.94608 7.7821 9.72772C7.7821 10.5094 8.4017 11.143 9.16601 11.143Z" fill="#FFB8B8"/>
<path d="M8.2368 9.03824C8.40164 9.19636 8.61991 9.28312 8.8459 9.28034C9.36877 9.30989 9.89314 9.26611 10.4044 9.15021C10.436 9.46444 10.3497 9.80288 10.5307 10.0611C10.6158 9.74854 10.6654 9.42698 10.6786 9.1028C10.6922 8.9637 10.6744 8.82327 10.6268 8.69224C10.6013 8.62659 10.5583 8.56957 10.5027 8.52767C10.447 8.48577 10.381 8.46065 10.3122 8.45518C10.4155 8.37609 10.5363 8.32413 10.6638 8.30386L10.2244 8.07791L10.3373 7.95938L9.5418 7.90894L9.77212 7.75763C9.42538 7.7089 9.07461 7.69758 8.72556 7.72383C8.56237 7.7239 8.40227 7.76941 8.26245 7.85548C8.19472 7.89953 8.14474 7.96703 8.12165 8.04565C8.09856 8.12427 8.1039 8.20876 8.13668 8.28369C8.03459 8.30083 7.93847 8.34434 7.85742 8.4101C7.77638 8.47585 7.7131 8.56168 7.67357 8.65945C7.62363 8.81486 7.61161 8.9804 7.63855 9.14164C7.66859 9.39982 7.72734 9.65365 7.81364 9.8982L8.2368 9.03824Z" fill="#2F2E41"/>
<path d="M13.0573 8.19342C12.8631 7.62317 12.5495 7.1031 12.1386 6.66949C11.7276 6.23587 11.2291 5.89914 10.6779 5.68275C10.1266 5.46637 9.53581 5.37554 8.9467 5.41661C8.35759 5.45768 7.78432 5.62966 7.26687 5.92054C6.74941 6.21143 6.30023 6.61423 5.95061 7.10087C5.601 7.5875 5.35936 8.14626 5.24257 8.7382C5.12578 9.33013 5.13665 9.94099 5.27439 10.5282C5.41213 11.1154 5.67343 11.6648 6.04011 12.1381C6.0766 12.1851 6.11458 12.232 6.15305 12.2774L6.16095 12.2864C6.25591 12.3985 6.35682 12.5051 6.46327 12.6057C6.49089 12.6319 6.51999 12.6561 6.54909 12.6839C6.60433 12.7343 6.66155 12.7848 6.72024 12.8291C6.74342 12.8478 6.76611 12.8665 6.79027 12.8841C6.88349 12.9562 6.98064 13.0233 7.08026 13.0859H7.0847C7.11331 13.1035 7.14241 13.1217 7.1715 13.1363C7.22378 13.1686 7.27804 13.1988 7.3318 13.2281L7.36633 13.2458C7.44524 13.2876 7.52513 13.327 7.60749 13.3638L7.65681 13.386H7.66026C7.69873 13.4026 7.7377 13.4183 7.77667 13.4329C7.9058 13.4833 8.03751 13.5266 8.17122 13.5625C8.51295 13.6557 8.8651 13.7028 9.21877 13.7027C9.34798 13.7027 9.47523 13.6967 9.60149 13.6841C9.88956 13.6569 10.174 13.5982 10.4498 13.509C10.624 13.4523 10.7943 13.3834 10.9593 13.3027H10.9622C10.9992 13.2851 11.0352 13.2654 11.0717 13.2468L11.089 13.2377C11.1181 13.222 11.1472 13.2064 11.1763 13.1898C11.2493 13.1489 11.3208 13.1055 11.3913 13.0591C11.411 13.047 11.4298 13.0344 11.4495 13.0213C11.4771 13.0026 11.5047 12.9835 11.5319 12.9633C11.5674 12.9381 11.6034 12.9129 11.6384 12.8851C11.6492 12.8771 11.6611 12.8685 11.6719 12.8599C12.3547 12.331 12.8564 11.5948 13.1053 10.7566C13.3541 9.91845 13.3373 9.02125 13.0573 8.19342ZM11.5442 12.6824C11.52 12.7015 11.4949 12.7202 11.4707 12.7373C11.4465 12.7545 11.4214 12.7737 11.3977 12.7878C11.374 12.8019 11.3553 12.8185 11.3336 12.8327L11.3272 12.8372L11.2779 12.8695C11.2174 12.9082 11.1562 12.9455 11.0944 12.9815L11.0747 12.9926L10.9918 13.038L10.98 13.044H10.9755C10.9405 13.0627 10.905 13.0803 10.869 13.0975C10.7311 13.1654 10.5891 13.2242 10.4439 13.2735L10.3872 13.2927C10.126 13.3776 9.85663 13.4336 9.58374 13.4596C9.46439 13.4707 9.34306 13.4768 9.22124 13.4768C8.88684 13.4775 8.55384 13.4328 8.2309 13.3441C8.06509 13.2999 7.90258 13.2436 7.74461 13.1756L7.71994 13.1651L7.69529 13.1545L7.66964 13.1424C7.60108 13.1116 7.53351 13.0783 7.46693 13.0415L7.43487 13.0243C7.35399 12.981 7.27458 12.9351 7.19715 12.8856C7.17446 12.8715 7.15129 12.8564 7.12959 12.8407L7.11282 12.8296C7.0635 12.7948 7.00924 12.758 6.95894 12.7202C6.92491 12.694 6.89038 12.6698 6.85684 12.641C6.80062 12.5976 6.74687 12.5517 6.69409 12.5038C6.66648 12.4801 6.63935 12.4534 6.61321 12.4292C6.50987 12.3316 6.41206 12.228 6.32025 12.119C6.28968 12.0832 6.25958 12.0474 6.23147 12.01C6.22499 12.0026 6.2189 11.9949 6.21322 11.9868C5.73959 11.3756 5.45469 10.634 5.39486 9.85659C5.33504 9.07914 5.503 8.30109 5.87733 7.62166C6.25165 6.94223 6.81536 6.39222 7.49659 6.04177C8.17782 5.69131 8.94569 5.5563 9.70226 5.65395C10.4588 5.75161 11.1698 6.0775 11.7445 6.59006C12.3192 7.10263 12.7316 7.77864 12.9292 8.53188C13.1267 9.28512 13.1003 10.0814 12.8535 10.8193C12.6066 11.5572 12.1505 12.2031 11.5432 12.6748L11.5442 12.6824Z" fill="#3F3D56"/>
<path d="M9.24548 37.1421C11.0457 37.1179 10.8365 37.9763 10.8365 38.8746C10.8365 39.3062 10.6689 39.72 10.3705 40.0252C10.0721 40.3303 9.66746 40.5018 9.24548 40.5018C8.82351 40.5018 8.41882 40.3303 8.12044 40.0252C7.82206 39.72 7.65443 39.3062 7.65443 38.8746C7.65443 37.9758 7.44531 37.1658 9.24548 37.1421Z" fill="#2F2E41"/>
<path d="M11.1481 41.7087L10.9607 41.4061C10.9221 41.315 10.8662 41.2325 10.7963 41.1636C10.7263 41.0947 10.6437 41.0406 10.5532 41.0044C10.4628 40.9683 10.3662 40.9508 10.2691 40.9531C10.1719 40.9553 10.0762 40.9772 9.98742 41.0174C9.89862 41.0577 9.81847 41.1155 9.75163 41.1876C9.68479 41.2597 9.63257 41.3445 9.59797 41.4374C9.56338 41.5302 9.54709 41.6291 9.55006 41.7284C9.55303 41.8277 9.5752 41.9254 9.61528 42.0159L9.66855 42.2116L9.7292 42.4335C9.97476 42.4019 10.2171 42.3479 10.4532 42.2721C10.6278 42.2156 10.7982 42.1465 10.9632 42.0654H10.9661C11.0026 42.0477 11.0386 42.0285 11.0756 42.0098L11.0929 42.0003C11.1225 41.9851 11.1516 41.9695 11.1802 41.9534C11.2088 41.9372 11.2379 41.9206 11.2655 41.9029L11.1481 41.7087Z" fill="#CACACA"/>
<path d="M9.29576 40.644C10.0415 40.644 10.6461 40.0257 10.6461 39.263C10.6461 38.5003 10.0415 37.882 9.29576 37.882C8.54996 37.882 7.94538 38.5003 7.94538 39.263C7.94538 40.0257 8.54996 40.644 9.29576 40.644Z" fill="#FFB6B6"/>
<path d="M11.2458 41.9715C11.0969 41.7182 10.9121 41.4889 10.6974 41.2911C10.5504 41.1566 10.36 41.0823 10.1628 41.0823H8.2605C8.15088 41.0822 8.0424 41.1051 7.94178 41.1496C7.84115 41.1941 7.75053 41.2592 7.6755 41.341C7.60048 41.4227 7.54265 41.5193 7.50559 41.6248C7.46853 41.7303 7.45302 41.8425 7.46003 41.9544C7.46416 42.0175 7.47525 42.0799 7.49308 42.1405C7.50627 42.1843 7.52276 42.2269 7.54241 42.2681L7.63612 42.4598L7.6583 42.4693H7.66176C7.70023 42.4855 7.73919 42.5011 7.77865 42.5163C7.90777 42.5668 8.03948 42.61 8.1732 42.6459C8.38881 42.705 8.60888 42.7455 8.83112 42.7669C8.96083 42.779 9.09005 42.7856 9.22075 42.7856C9.35145 42.7856 9.47722 42.779 9.60397 42.7669C9.6454 42.7634 9.68682 42.7584 9.72825 42.7538C9.9738 42.7222 10.2161 42.6682 10.4523 42.5924C10.6268 42.5359 10.7972 42.4668 10.9622 42.3856H10.9652C11.0022 42.368 11.0377 42.3488 11.0747 42.3301L11.0919 42.3206C11.1215 42.3054 11.1506 42.2893 11.1792 42.2736C11.2078 42.258 11.2369 42.2409 11.2646 42.2232C11.2922 42.2056 11.3218 42.1894 11.3499 42.1728C11.3183 42.1001 11.2823 42.0341 11.2458 41.9715Z" fill="#CACACA"/>
<path d="M8.60479 41.0122C8.42872 40.928 8.22719 40.9185 8.04429 40.9858C7.8614 41.0531 7.712 41.1917 7.62875 41.3713L7.45957 41.6326L7.37869 41.7577L7.25539 41.9473L7.33183 41.9897L7.36586 42.0074C7.44477 42.0487 7.52468 42.088 7.60754 42.1249C7.61691 42.1294 7.62677 42.1334 7.63713 42.138L7.65932 42.1476H7.66278C7.70125 42.1637 7.74021 42.1793 7.77966 42.1945C7.90878 42.245 8.04049 42.2883 8.17422 42.3241C8.38982 42.3832 8.60991 42.4237 8.83215 42.4451L8.89627 42.2222L8.9589 42.0099C9.04121 41.8292 9.0501 41.6225 8.98362 41.4351C8.91715 41.2477 8.78074 41.0949 8.60429 41.0102L8.60479 41.0122Z" fill="#CACACA"/>
<path d="M7.87685 38.3945C8.18537 38.612 8.55162 38.7279 8.92638 38.7264C8.79335 38.8208 8.64193 38.8848 8.48249 38.914C8.98076 39.0232 9.49572 39.0262 9.99514 38.9226C10.1061 38.9044 10.2132 38.8669 10.3118 38.8116C10.3612 38.7837 10.4043 38.7455 10.4383 38.6995C10.4723 38.6534 10.4964 38.6005 10.509 38.5443C10.5108 38.4458 10.4868 38.3486 10.4397 38.2627C10.3925 38.1768 10.3239 38.1053 10.2407 38.0555C10.0057 37.8766 9.73468 37.7533 9.44732 37.6946C9.15995 37.6358 8.86341 37.6432 8.57917 37.7161C8.38937 37.7548 8.2166 37.8545 8.08597 38.0006C8.02294 38.0747 7.98488 38.1677 7.97742 38.2657C7.96996 38.3637 7.99349 38.4615 8.04453 38.5448L7.87685 38.3945Z" fill="#2F2E41"/>
<path d="M13.0574 37.2702C12.8634 36.6995 12.55 36.179 12.1391 35.7449C11.7281 35.3108 11.2295 34.9737 10.678 34.757C10.1265 34.5403 9.53544 34.4493 8.94601 34.4902C8.35657 34.5312 7.78297 34.7032 7.26524 34.9943C6.74751 35.2853 6.29811 35.6884 5.9484 36.1753C5.59868 36.6623 5.35706 37.2214 5.24042 37.8137C5.12377 38.406 5.13489 39.0172 5.27302 39.6047C5.41114 40.1921 5.67295 40.7417 6.04015 41.215C6.07615 41.2619 6.11462 41.3088 6.15309 41.3542C6.1553 41.3576 6.15777 41.3608 6.16048 41.3638C6.25568 41.4757 6.35694 41.5822 6.46379 41.6825C6.49141 41.7088 6.52002 41.736 6.54912 41.7612C6.60436 41.8116 6.66109 41.8621 6.72076 41.906C6.74394 41.9246 6.76663 41.9438 6.7908 41.9614C6.88352 42.0336 6.98116 42.1006 7.08029 42.1632C7.08173 42.1627 7.08329 42.1627 7.08473 42.1632C7.11334 42.1808 7.14244 42.199 7.17203 42.2136L7.25588 42.2641L7.33232 42.3064L7.36635 42.3241C7.44527 42.3654 7.52516 42.4048 7.60802 42.4416C7.61739 42.4461 7.62725 42.4502 7.63761 42.4547L7.65981 42.4643H7.66325C7.70172 42.4804 7.74069 42.4961 7.78014 42.5112C7.90926 42.5617 8.04098 42.605 8.17471 42.6408C8.39031 42.7 8.61039 42.7405 8.83263 42.7619C8.96234 42.774 9.09156 42.7805 9.22226 42.7805C9.35295 42.7805 9.47872 42.774 9.60548 42.7619C9.6469 42.7584 9.68832 42.7533 9.72975 42.7488C9.97531 42.7171 10.2176 42.6631 10.4538 42.5874C10.6283 42.5308 10.7987 42.4617 10.9637 42.3806H10.9667C11.0032 42.3629 11.0392 42.3438 11.0762 42.3251L11.0935 42.3155C11.123 42.3004 11.1521 42.2847 11.1807 42.2686C11.2094 42.2525 11.2384 42.2358 11.2661 42.2182C11.2937 42.2005 11.3233 42.1844 11.3514 42.1677L11.3953 42.1395C11.4155 42.1274 11.4338 42.1153 11.454 42.1012C11.4742 42.087 11.5092 42.0633 11.5359 42.0436C11.5719 42.0184 11.6074 41.9932 11.6424 41.965C11.6541 41.9572 11.6655 41.9488 11.6764 41.9397C12.3585 41.4097 12.8594 40.6727 13.1074 39.834C13.3554 38.9954 13.3379 38.0981 13.0574 37.2702ZM11.5442 41.7592C11.5206 41.7789 11.4949 41.7975 11.4707 41.8147C11.4466 41.8318 11.4214 41.8515 11.3973 41.8681C11.3731 41.8848 11.3548 41.8984 11.3331 41.9125L11.3267 41.9171C11.3109 41.9282 11.2947 41.9387 11.2774 41.9488L11.2444 41.9695C11.2123 41.9902 11.1802 42.0099 11.1457 42.0285C11.1285 42.0396 11.1097 42.0502 11.0925 42.0603L11.0732 42.0714C11.0446 42.0875 11.017 42.1017 10.9894 42.1163C10.9859 42.1193 10.981 42.1198 10.9785 42.1228C10.9771 42.1224 10.9755 42.1224 10.9741 42.1228C10.9391 42.1415 10.9036 42.1597 10.8676 42.1763C10.7295 42.2441 10.5874 42.3028 10.4419 42.3518C10.4237 42.3584 10.4045 42.366 10.3857 42.3715C10.1513 42.4475 9.91037 42.5004 9.66613 42.5294C9.63851 42.5329 9.60991 42.5359 9.5818 42.539C9.46245 42.5501 9.3421 42.5561 9.21979 42.5561C9.11129 42.5561 9.00179 42.5516 8.89428 42.542C8.66949 42.5228 8.44684 42.4831 8.22895 42.4235C8.06305 42.3793 7.90052 42.3228 7.74266 42.2545L7.718 42.2444L7.69334 42.2338C7.68397 42.2303 7.67657 42.2262 7.66769 42.2217C7.60802 42.1955 7.54835 42.1662 7.49015 42.136L7.46548 42.1228L7.43342 42.1057L7.37621 42.0749C7.31456 42.0411 7.2539 42.0043 7.19521 41.967C7.17301 41.9529 7.14934 41.9377 7.12715 41.9226L7.11038 41.9115C7.06106 41.8757 7.0073 41.8399 6.95699 41.8016C6.92296 41.7753 6.88794 41.7511 6.8549 41.7224C6.79868 41.679 6.74443 41.6331 6.69215 41.5852C6.66453 41.5615 6.63691 41.5347 6.61127 41.511C6.50784 41.4135 6.41002 41.3099 6.31831 41.2008C6.28822 41.165 6.25765 41.1292 6.22904 41.0919C6.22263 41.0843 6.2172 41.0768 6.21078 41.0682C5.73705 40.4569 5.45209 39.7152 5.39223 38.9377C5.33236 38.1601 5.50032 37.3819 5.87468 36.7024C6.24903 36.0229 6.81283 35.4728 7.49415 35.1222C8.17548 34.7717 8.94344 34.6367 9.70012 34.7343C10.4568 34.832 11.1679 35.1579 11.7427 35.6706C12.3175 36.1832 12.73 36.8593 12.9275 37.6127C13.125 38.366 13.0986 39.1625 12.8518 39.9004C12.6049 40.6384 12.1486 41.2844 11.5413 41.7562L11.5442 41.7592Z" fill="#3F3D56"/>
<path d="M16.0156 16.6589C14.6015 15.4389 12.8713 14.6656 11.0353 14.4329C9.19931 14.2003 7.3368 14.5184 5.67439 15.3486C4.01199 16.1787 2.62136 17.4851 1.67172 19.1088C0.722091 20.7325 0.254387 22.6034 0.325546 24.494C0.396704 26.3845 1.00365 28.2132 2.07252 29.7574C3.14139 31.3016 4.6261 32.4948 6.34599 33.1918C8.06588 33.8888 9.94681 34.0596 11.7599 33.6833C13.5729 33.307 15.2399 32.3999 16.5581 31.0724L28.2622 41.1741C28.4412 41.3195 28.6686 41.3879 28.8961 41.3647C29.1236 41.3416 29.3333 41.2288 29.4808 41.0501C29.6283 40.8715 29.7021 40.6412 29.6863 40.4079C29.6706 40.1747 29.5666 39.9569 29.3965 39.8007L17.69 29.699C19.0498 27.7028 19.6316 25.2593 19.3214 22.8472C19.0112 20.4352 17.8314 18.2286 16.0131 16.6599L16.0156 16.6589ZM15.261 28.7251C14.349 29.8308 13.1368 30.6352 11.7778 31.0364C10.4188 31.4376 8.9739 31.4176 7.62598 30.979C6.27805 30.5403 5.0876 29.7027 4.20519 28.5721C3.32277 27.4415 2.78804 26.0687 2.66861 24.6273C2.54918 23.1859 2.85043 21.7406 3.53425 20.4743C4.21807 19.208 5.25374 18.1775 6.51028 17.5132C7.76682 16.8488 9.18777 16.5805 10.5934 16.7421C11.9991 16.9038 13.3263 17.4881 14.4073 18.4211C15.8563 19.672 16.7602 21.4601 16.9203 23.3923C17.0804 25.3246 16.4835 27.2428 15.261 28.7251Z" fill="#3F3D56"/>
<path opacity="0.3" d="M5.18546 29.5982C3.81401 28.4143 2.92797 26.7463 2.70322 24.9254C2.47846 23.1044 2.93143 21.2636 3.9722 19.7683C3.83542 19.9092 3.70389 20.0567 3.57763 20.2107C2.39266 21.6974 1.82625 23.6007 2.00043 25.5105C2.17461 27.4203 3.07543 29.1836 4.50882 30.4206C5.9422 31.6576 7.7934 32.2692 9.66354 32.1237C11.5337 31.9782 13.2731 31.0871 14.5069 29.6425C14.6341 29.4882 14.754 29.3301 14.8664 29.1684C13.6 30.4696 11.9014 31.2361 10.108 31.3157C8.31449 31.3953 6.55734 30.7822 5.18546 29.5982Z" fill="black"/>
<path d="M39.6155 41.5519C39.7071 41.4378 39.773 41.3045 39.8087 41.1614C39.8443 41.0184 39.8489 40.8691 39.822 40.7241C39.7951 40.5791 39.7374 40.4419 39.653 40.3221C39.5685 40.2024 39.4594 40.1031 39.3334 40.0312L37.1998 31.0997L35.6433 31.6081L37.9475 40.4786C37.843 40.703 37.8227 40.9588 37.8904 41.1975C37.9581 41.4363 38.1091 41.6413 38.3148 41.7737C38.5205 41.9061 38.7665 41.9568 39.0063 41.916C39.2461 41.8752 39.4628 41.7458 39.6155 41.5524V41.5519Z" fill="#FFB6B6"/>
<path d="M38.5127 35.8388L37.3754 36.8425L35.7838 38.2457L35.081 34.5678L35.0076 34.1855L34.9499 33.8828L36.5626 31.0079L37.9071 31.0866L37.9988 31.0921V31.1128L38.02 31.3055L38.2957 33.8405L38.3021 33.9015L38.5127 35.8388Z" fill="#02B69B"/>
<path d="M31.0779 60.8064H29.9514L29.4153 56.3629H31.0779V60.8064Z" fill="#FFB6B6"/>
<path d="M31.3648 61.9206H27.7339V61.8737C27.7339 61.4903 27.8828 61.1226 28.1479 60.8514C28.413 60.5802 28.7725 60.4278 29.1474 60.4277H31.3668L31.3648 61.9206Z" fill="#2F2E41"/>
<path d="M42.839 60.9003H41.7125L41.1764 56.4567H42.839V60.9003Z" fill="#FFB6B6"/>
<path d="M43.1261 62.0144H39.4952V61.9675C39.4952 61.5841 39.6441 61.2164 39.9092 60.9452C40.1742 60.674 40.5338 60.5216 40.9087 60.5215H43.1281L43.1261 62.0144Z" fill="#2F2E41"/>
<path d="M43.7392 59.1289L40.707 59.599L36.2953 44.331L31.61 59.6928L28.2104 59.2227L32.621 41.3678V39.9596L33.2183 37.8452L33.1556 37.2727L32.8494 34.4528L32.7211 33.2705L32.5327 31.535L32.5204 31.423C32.5102 31.3289 32.5346 31.2343 32.5888 31.1575C32.6431 31.0808 32.7233 31.0275 32.8139 31.0079L34.2288 30.7052H36.5414L37.9061 31.0896L37.9998 31.1158L38.0422 31.1279L38.021 31.3085L37.5599 31.537L37.3069 32.1952V37.4225C39.9701 39.3957 40.0634 41.3693 40.0634 41.3693L43.7392 59.1289Z" fill="#2F2E41"/>
<path d="M35.1057 29.5149C36.3521 29.5149 37.3626 28.4816 37.3626 27.2069C37.3626 25.9322 36.3521 24.8989 35.1057 24.8989C33.8593 24.8989 32.8488 25.9322 32.8488 27.2069C32.8488 28.4816 33.8593 29.5149 35.1057 29.5149Z" fill="#FFB6B6"/>
<path d="M33.5767 32.1412L37.312 33.4622L37.5597 37.5422L33.0953 38.1393L33.5767 32.1412Z" fill="#02B69B"/>
<path d="M27.0236 37.6858C27.0663 37.7141 27.1067 37.7458 27.1444 37.7806L31.56 36.6297L31.8614 35.5402L33.5284 35.7924L33.1782 37.7741C33.1499 37.9342 33.0716 38.0806 32.955 38.1913C32.8385 38.302 32.6899 38.371 32.5317 38.3879L27.3758 38.9427C27.2917 39.1237 27.1558 39.2743 26.9861 39.3743C26.8163 39.4744 26.6208 39.5192 26.4256 39.5029C26.2303 39.4865 26.0445 39.4097 25.893 39.2828C25.7414 39.1558 25.6312 38.9846 25.5771 38.7921C25.523 38.5995 25.5275 38.3947 25.59 38.2048C25.6526 38.0149 25.7701 37.849 25.9271 37.7291C26.0841 37.6092 26.273 37.5411 26.4688 37.5337C26.6646 37.5263 26.858 37.5801 27.0231 37.6878L27.0236 37.6858Z" fill="#FFB6B6"/>
<path d="M33.8156 31.596L33.0344 30.9852C32.8233 30.9035 32.5338 31.1365 32.483 31.3609L31.3807 35.9669L33.678 37.6586L33.9996 37.1416L33.8156 31.596Z" fill="#02B69B"/>
<g opacity="0.2">
<path d="M38.2967 33.8415C38.1018 33.9206 37.9031 33.9896 37.7014 34.0483C37.6372 34.0679 37.5707 34.0866 37.5041 34.1047C37.074 34.2267 36.6321 34.2998 36.1863 34.3226C35.9945 34.3309 35.8023 34.3255 35.6112 34.3065C35.406 34.2856 35.2032 34.2448 35.0055 34.1844L34.9853 34.1789C34.5746 34.0596 34.198 33.8407 33.8875 33.5409C33.8181 33.4717 33.7534 33.3979 33.6936 33.3199C33.522 33.105 33.3961 32.8559 33.3239 32.5884C33.2517 32.3209 33.2349 32.041 33.2744 31.7665C33.282 31.7166 33.2924 31.6673 33.3055 31.6187C33.3402 31.4864 33.386 31.3575 33.4426 31.2333C33.4673 31.1748 33.4949 31.1178 33.5245 31.0613L34.5627 30.7022H36.5399L37.9046 31.0866L37.9963 31.0921V31.1128L38.0387 31.1249L38.0175 31.3055L38.2967 33.8415Z" fill="black"/>
</g>
<path d="M33.3766 25.2958C33.1675 25.2544 32.9523 25.256 32.7438 25.3007C32.5353 25.3454 32.3376 25.4322 32.1623 25.5561C32.079 25.6216 32.0094 25.7037 31.9578 25.7974C31.9062 25.8911 31.8737 25.9944 31.8621 26.1013C31.8506 26.2082 31.8602 26.3164 31.8905 26.4193C31.9209 26.5223 31.9712 26.6179 32.0386 26.7005C32.3143 26.9628 32.7453 26.9023 33.1147 26.9754C33.4329 27.0484 33.7179 27.2283 33.9242 27.4866C34.1305 27.7448 34.2461 28.0664 34.2525 28.3997C34.2471 29.358 33.35 30.0798 33.1887 31.0225C33.1447 31.3467 33.1774 31.677 33.2842 31.9856C33.391 32.2942 33.5686 32.5721 33.8022 32.7959C34.2772 33.2399 34.8834 33.5093 35.525 33.5615C36.1628 33.6111 36.8042 33.5428 37.4184 33.3598C38.0435 33.2083 38.6362 32.9411 39.1672 32.5714C39.7004 32.1973 40.0929 31.6484 40.2799 31.0154C40.3688 30.6996 40.3803 30.3663 40.3136 30.0448C40.2468 29.7234 40.1039 29.4236 39.8972 29.1719C39.404 28.6171 38.5858 28.4245 38.1596 27.8137C37.6822 27.1287 37.8588 26.1538 37.4726 25.4113C37.1904 24.9223 36.7375 24.5608 36.2051 24.3995C35.6764 24.242 35.1281 24.1644 34.5775 24.169C34.2893 24.1417 33.9986 24.1742 33.7228 24.2644C33.5856 24.3117 33.4643 24.3975 33.3725 24.512C33.2808 24.6265 33.2224 24.7651 33.204 24.912C33.1931 24.9862 33.2036 25.0621 33.2343 25.1302C33.2649 25.1984 33.3144 25.256 33.3766 25.2958Z" fill="#2F2E41"/>
<path d="M13.4174 28.1425C12.8726 27.8489 12.304 27.6042 11.7178 27.4112L11.6429 26.5658L8.61169 26.2319L8.2265 27.3128L7.13851 27.7304C7.09954 27.7456 7.06245 27.7654 7.02803 27.7895C6.96738 27.8314 6.91572 27.8856 6.87621 27.9486C6.8367 28.0116 6.81015 28.0823 6.7982 28.1561C6.78654 28.2296 6.78922 28.3047 6.80609 28.3771L6.86379 28.6181C6.94665 28.6686 7.03148 28.719 7.1168 28.7629L7.17106 28.7911C7.29535 28.8572 7.42161 28.9193 7.55181 28.9768L7.63318 29.0121H7.63909C7.70025 29.0378 7.76092 29.0625 7.82307 29.0862C8.02709 29.1659 8.2352 29.2343 8.44647 29.291C8.98546 29.4378 9.54088 29.5121 10.0987 29.5119C10.3024 29.5119 10.5036 29.5023 10.7023 29.4826C11.1569 29.4397 11.6057 29.3471 12.0409 29.2062H12.0443C12.3193 29.1166 12.5879 29.0078 12.8483 28.8804C12.8483 28.8804 12.8517 28.8804 12.8527 28.8804C12.9114 28.8522 12.9676 28.8214 13.0253 28.7922L13.0529 28.778C13.0988 28.7533 13.1452 28.7276 13.191 28.7029C13.3059 28.6383 13.4189 28.5702 13.5303 28.4971C13.5614 28.4784 13.5915 28.4583 13.6226 28.4371C13.6665 28.4078 13.7099 28.377 13.7523 28.3453C13.6438 28.2737 13.5303 28.2066 13.4174 28.1425Z" fill="#02B69B"/>
<path d="M10.0084 25.6973C11.214 25.6973 12.1913 24.6978 12.1913 23.4649C12.1913 22.232 11.214 21.2326 10.0084 21.2326C8.80284 21.2326 7.82552 22.232 7.82552 23.4649C7.82552 24.6978 8.80284 25.6973 10.0084 25.6973Z" fill="#FFB8B8"/>
<path d="M8.54313 22.378C8.80324 22.6276 9.14771 22.7646 9.50438 22.7603C10.3292 22.8069 11.1564 22.7379 11.963 22.555C12.0123 23.0503 11.8767 23.5845 12.1603 23.992C12.2941 23.4984 12.3718 22.9907 12.392 22.4789C12.4133 22.2594 12.3853 22.0379 12.3102 21.8313C11.8648 21.2242 11.2064 20.8176 10.4737 20.6973C9.74097 20.577 8.99119 20.7522 8.38236 21.1862C8.22136 21.2132 8.06976 21.2819 7.94194 21.3856C7.81413 21.4893 7.7143 21.6246 7.65192 21.7788C7.57314 22.0239 7.55418 22.2851 7.59668 22.5394C7.64406 22.9475 7.73689 23.3487 7.87337 23.7353L8.54313 22.378Z" fill="#2F2E41"/>
<defs>
<linearGradient id="paint0_linear_1_56" x1="1.33163" y1="0.0144348" x2="49.0285" y2="45.3483" gradientUnits="userSpaceOnUse">
<stop stop-color="white"/>
<stop offset="1" stop-color="white"/>
</linearGradient>
</defs>
</svg>
